<mxfile host="app.diagrams.net" agent="Mozilla/5.0 (Macintosh; Intel Mac OS X 10_15_7) AppleWebKit/605.1.15 (KHTML, like Gecko) Version/17.5 Safari/605.1.15" version="26.0.2">
  <diagram name="Page-1" id="_RvNf70ZmO7tJ27rSWZD">
    <mxGraphModel dx="2646" dy="1574" grid="1" gridSize="10" guides="1" tooltips="1" connect="1" arrows="1" fold="1" page="1" pageScale="1" pageWidth="827" pageHeight="1169" math="0" shadow="0">
      <root>
        <mxCell id="0" />
        <mxCell id="1" parent="0" />
        <mxCell id="KGw5YceljunHFCwn1Aad-67" style="edgeStyle=orthogonalEdgeStyle;rounded=0;orthogonalLoop=1;jettySize=auto;html=1;exitX=0.5;exitY=1;exitDx=0;exitDy=0;entryX=0.5;entryY=0;entryDx=0;entryDy=0;" edge="1" parent="1" source="KGw5YceljunHFCwn1Aad-27" target="KGw5YceljunHFCwn1Aad-30">
          <mxGeometry relative="1" as="geometry" />
        </mxCell>
        <mxCell id="KGw5YceljunHFCwn1Aad-27" value="Start" style="ellipse;whiteSpace=wrap;html=1;aspect=fixed;fillColor=#e1d5e7;strokeColor=#9673a6;" vertex="1" parent="1">
          <mxGeometry x="220" y="190" width="50" height="50" as="geometry" />
        </mxCell>
        <mxCell id="KGw5YceljunHFCwn1Aad-28" value="Login Page" style="shape=umlFrame;whiteSpace=wrap;html=1;pointerEvents=0;width=80;height=30;fillColor=#e1d5e7;strokeColor=#9673a6;" vertex="1" parent="1">
          <mxGeometry x="70" y="130" width="500" height="1470" as="geometry" />
        </mxCell>
        <mxCell id="KGw5YceljunHFCwn1Aad-66" style="edgeStyle=orthogonalEdgeStyle;rounded=0;orthogonalLoop=1;jettySize=auto;html=1;exitX=0.5;exitY=1;exitDx=0;exitDy=0;entryX=0.5;entryY=0;entryDx=0;entryDy=0;" edge="1" parent="1" source="KGw5YceljunHFCwn1Aad-30" target="KGw5YceljunHFCwn1Aad-31">
          <mxGeometry relative="1" as="geometry" />
        </mxCell>
        <mxCell id="KGw5YceljunHFCwn1Aad-30" value="If user is a new member&amp;nbsp;" style="rounded=1;whiteSpace=wrap;html=1;fillColor=#e1d5e7;strokeColor=#9673a6;" vertex="1" parent="1">
          <mxGeometry x="185" y="290" width="120" height="60" as="geometry" />
        </mxCell>
        <mxCell id="KGw5YceljunHFCwn1Aad-34" style="edgeStyle=orthogonalEdgeStyle;rounded=0;orthogonalLoop=1;jettySize=auto;html=1;exitX=1;exitY=0.5;exitDx=0;exitDy=0;entryX=0;entryY=0.5;entryDx=0;entryDy=0;" edge="1" parent="1" source="KGw5YceljunHFCwn1Aad-31" target="KGw5YceljunHFCwn1Aad-32">
          <mxGeometry relative="1" as="geometry" />
        </mxCell>
        <mxCell id="KGw5YceljunHFCwn1Aad-38" style="edgeStyle=orthogonalEdgeStyle;rounded=0;orthogonalLoop=1;jettySize=auto;html=1;exitX=0.5;exitY=1;exitDx=0;exitDy=0;" edge="1" parent="1" source="KGw5YceljunHFCwn1Aad-31" target="KGw5YceljunHFCwn1Aad-36">
          <mxGeometry relative="1" as="geometry" />
        </mxCell>
        <mxCell id="KGw5YceljunHFCwn1Aad-69" value="Yes" style="edgeLabel;html=1;align=center;verticalAlign=middle;resizable=0;points=[];" vertex="1" connectable="0" parent="KGw5YceljunHFCwn1Aad-38">
          <mxGeometry x="-0.4" relative="1" as="geometry">
            <mxPoint as="offset" />
          </mxGeometry>
        </mxCell>
        <mxCell id="KGw5YceljunHFCwn1Aad-31" value="" style="rhombus;whiteSpace=wrap;html=1;fillColor=#e1d5e7;strokeColor=#9673a6;" vertex="1" parent="1">
          <mxGeometry x="205" y="400" width="80" height="80" as="geometry" />
        </mxCell>
        <mxCell id="KGw5YceljunHFCwn1Aad-35" style="edgeStyle=orthogonalEdgeStyle;rounded=0;orthogonalLoop=1;jettySize=auto;html=1;exitX=0.5;exitY=1;exitDx=0;exitDy=0;entryX=0.5;entryY=0;entryDx=0;entryDy=0;" edge="1" parent="1" source="KGw5YceljunHFCwn1Aad-32" target="KGw5YceljunHFCwn1Aad-33">
          <mxGeometry relative="1" as="geometry" />
        </mxCell>
        <mxCell id="KGw5YceljunHFCwn1Aad-32" value="Log in" style="rounded=1;whiteSpace=wrap;html=1;fillColor=#e1d5e7;strokeColor=#9673a6;" vertex="1" parent="1">
          <mxGeometry x="340" y="415" width="110" height="50" as="geometry" />
        </mxCell>
        <mxCell id="KGw5YceljunHFCwn1Aad-77" style="edgeStyle=orthogonalEdgeStyle;rounded=0;orthogonalLoop=1;jettySize=auto;html=1;exitX=1;exitY=0.5;exitDx=0;exitDy=0;entryX=0;entryY=0.5;entryDx=0;entryDy=0;" edge="1" parent="1" source="KGw5YceljunHFCwn1Aad-33" target="KGw5YceljunHFCwn1Aad-76">
          <mxGeometry relative="1" as="geometry" />
        </mxCell>
        <mxCell id="KGw5YceljunHFCwn1Aad-33" value="Validate" style="rounded=1;whiteSpace=wrap;html=1;fillColor=#e1d5e7;strokeColor=#9673a6;" vertex="1" parent="1">
          <mxGeometry x="340" y="510" width="110" height="50" as="geometry" />
        </mxCell>
        <mxCell id="KGw5YceljunHFCwn1Aad-70" style="edgeStyle=orthogonalEdgeStyle;rounded=0;orthogonalLoop=1;jettySize=auto;html=1;exitX=0.5;exitY=1;exitDx=0;exitDy=0;entryX=0.5;entryY=0;entryDx=0;entryDy=0;" edge="1" parent="1" source="KGw5YceljunHFCwn1Aad-36" target="KGw5YceljunHFCwn1Aad-39">
          <mxGeometry relative="1" as="geometry" />
        </mxCell>
        <mxCell id="KGw5YceljunHFCwn1Aad-36" value="Register" style="rounded=1;whiteSpace=wrap;html=1;fillColor=#e1d5e7;strokeColor=#9673a6;" vertex="1" parent="1">
          <mxGeometry x="187.5" y="520" width="115" height="50" as="geometry" />
        </mxCell>
        <mxCell id="KGw5YceljunHFCwn1Aad-39" value="Fill in Registration Form" style="rounded=1;whiteSpace=wrap;html=1;fillColor=#e1d5e7;strokeColor=#9673a6;" vertex="1" parent="1">
          <mxGeometry x="185" y="620" width="120" height="60" as="geometry" />
        </mxCell>
        <mxCell id="KGw5YceljunHFCwn1Aad-40" value="" style="endArrow=classic;html=1;rounded=0;exitX=0.5;exitY=1;exitDx=0;exitDy=0;entryX=0.5;entryY=0;entryDx=0;entryDy=0;" edge="1" parent="1" source="KGw5YceljunHFCwn1Aad-39" target="KGw5YceljunHFCwn1Aad-41">
          <mxGeometry width="50" height="50" relative="1" as="geometry">
            <mxPoint x="365" y="750" as="sourcePoint" />
            <mxPoint x="245" y="700" as="targetPoint" />
          </mxGeometry>
        </mxCell>
        <mxCell id="KGw5YceljunHFCwn1Aad-41" value="Submit Form" style="rounded=1;whiteSpace=wrap;html=1;fillColor=#e1d5e7;strokeColor=#9673a6;" vertex="1" parent="1">
          <mxGeometry x="185" y="730" width="120" height="60" as="geometry" />
        </mxCell>
        <mxCell id="KGw5YceljunHFCwn1Aad-42" style="edgeStyle=orthogonalEdgeStyle;rounded=0;orthogonalLoop=1;jettySize=auto;html=1;exitX=0.5;exitY=1;exitDx=0;exitDy=0;entryX=0.5;entryY=0;entryDx=0;entryDy=0;" edge="1" parent="1" source="KGw5YceljunHFCwn1Aad-43">
          <mxGeometry relative="1" as="geometry">
            <mxPoint x="245" y="950" as="targetPoint" />
          </mxGeometry>
        </mxCell>
        <mxCell id="KGw5YceljunHFCwn1Aad-43" value="Recive Verification Code" style="rounded=1;whiteSpace=wrap;html=1;fillColor=#e1d5e7;strokeColor=#9673a6;" vertex="1" parent="1">
          <mxGeometry x="185" y="840" width="120" height="60" as="geometry" />
        </mxCell>
        <mxCell id="KGw5YceljunHFCwn1Aad-44" style="edgeStyle=orthogonalEdgeStyle;rounded=0;orthogonalLoop=1;jettySize=auto;html=1;exitX=0.5;exitY=1;exitDx=0;exitDy=0;entryX=0.5;entryY=0;entryDx=0;entryDy=0;" edge="1" parent="1" target="KGw5YceljunHFCwn1Aad-46">
          <mxGeometry relative="1" as="geometry">
            <mxPoint x="245" y="1010" as="sourcePoint" />
          </mxGeometry>
        </mxCell>
        <mxCell id="KGw5YceljunHFCwn1Aad-46" value="Enter Verification Code" style="rounded=1;whiteSpace=wrap;html=1;fillColor=#e1d5e7;strokeColor=#9673a6;" vertex="1" parent="1">
          <mxGeometry x="185" y="1060" width="120" height="60" as="geometry" />
        </mxCell>
        <mxCell id="KGw5YceljunHFCwn1Aad-47" value="Verifycation Successful" style="rounded=1;whiteSpace=wrap;html=1;fillColor=#e1d5e7;strokeColor=#9673a6;" vertex="1" parent="1">
          <mxGeometry x="185" y="1270" width="120" height="60" as="geometry" />
        </mxCell>
        <mxCell id="KGw5YceljunHFCwn1Aad-49" value="Show Confirmation" style="rounded=1;whiteSpace=wrap;html=1;fillColor=#e1d5e7;strokeColor=#9673a6;" vertex="1" parent="1">
          <mxGeometry x="185" y="1370" width="120" height="60" as="geometry" />
        </mxCell>
        <mxCell id="KGw5YceljunHFCwn1Aad-50" value="Send Verification Code (Email/SMS)" style="rounded=1;whiteSpace=wrap;html=1;fillColor=#e1d5e7;strokeColor=#9673a6;" vertex="1" parent="1">
          <mxGeometry x="385" y="730" width="120" height="60" as="geometry" />
        </mxCell>
        <mxCell id="KGw5YceljunHFCwn1Aad-51" style="edgeStyle=orthogonalEdgeStyle;rounded=0;orthogonalLoop=1;jettySize=auto;html=1;exitX=0.5;exitY=1;exitDx=0;exitDy=0;entryX=0.5;entryY=0;entryDx=0;entryDy=0;" edge="1" parent="1" source="KGw5YceljunHFCwn1Aad-52" target="KGw5YceljunHFCwn1Aad-55">
          <mxGeometry relative="1" as="geometry" />
        </mxCell>
        <mxCell id="KGw5YceljunHFCwn1Aad-52" value="Validate Verification Code" style="rounded=1;whiteSpace=wrap;html=1;fillColor=#e1d5e7;strokeColor=#9673a6;" vertex="1" parent="1">
          <mxGeometry x="385" y="1060" width="120" height="60" as="geometry" />
        </mxCell>
        <mxCell id="KGw5YceljunHFCwn1Aad-53" style="edgeStyle=orthogonalEdgeStyle;rounded=0;orthogonalLoop=1;jettySize=auto;html=1;exitX=1;exitY=0.5;exitDx=0;exitDy=0;" edge="1" parent="1" source="KGw5YceljunHFCwn1Aad-55">
          <mxGeometry relative="1" as="geometry">
            <mxPoint x="515" y="1270" as="targetPoint" />
          </mxGeometry>
        </mxCell>
        <mxCell id="KGw5YceljunHFCwn1Aad-54" style="edgeStyle=orthogonalEdgeStyle;rounded=0;orthogonalLoop=1;jettySize=auto;html=1;exitX=0;exitY=0.5;exitDx=0;exitDy=0;" edge="1" parent="1" source="KGw5YceljunHFCwn1Aad-55">
          <mxGeometry relative="1" as="geometry">
            <mxPoint x="375" y="1270" as="targetPoint" />
            <Array as="points">
              <mxPoint x="375" y="1215" />
            </Array>
          </mxGeometry>
        </mxCell>
        <mxCell id="KGw5YceljunHFCwn1Aad-55" value="Is Code Valid?" style="rhombus;whiteSpace=wrap;html=1;fillColor=#e1d5e7;strokeColor=#9673a6;" vertex="1" parent="1">
          <mxGeometry x="395" y="1170" width="100" height="90" as="geometry" />
        </mxCell>
        <mxCell id="KGw5YceljunHFCwn1Aad-56" value="Yes" style="text;html=1;align=center;verticalAlign=middle;whiteSpace=wrap;rounded=0;" vertex="1" parent="1">
          <mxGeometry x="355" y="1180" width="60" height="30" as="geometry" />
        </mxCell>
        <mxCell id="KGw5YceljunHFCwn1Aad-57" value="No" style="text;html=1;align=center;verticalAlign=middle;resizable=0;points=[];autosize=1;strokeColor=none;fillColor=none;" vertex="1" parent="1">
          <mxGeometry x="495" y="1180" width="40" height="30" as="geometry" />
        </mxCell>
        <mxCell id="KGw5YceljunHFCwn1Aad-58" value="Registration&amp;nbsp;&lt;div&gt;successful&lt;/div&gt;" style="rounded=1;whiteSpace=wrap;html=1;fillColor=#e1d5e7;strokeColor=#9673a6;" vertex="1" parent="1">
          <mxGeometry x="355" y="1280" width="80" height="40" as="geometry" />
        </mxCell>
        <mxCell id="KGw5YceljunHFCwn1Aad-59" value="Re-enter Code (Try again)" style="rounded=1;whiteSpace=wrap;html=1;fillColor=#e1d5e7;strokeColor=#9673a6;" vertex="1" parent="1">
          <mxGeometry x="445" y="1280" width="90" height="40" as="geometry" />
        </mxCell>
        <mxCell id="KGw5YceljunHFCwn1Aad-60" style="edgeStyle=orthogonalEdgeStyle;rounded=0;orthogonalLoop=1;jettySize=auto;html=1;exitX=1;exitY=0.5;exitDx=0;exitDy=0;entryX=0;entryY=0.5;entryDx=0;entryDy=0;" edge="1" parent="1" source="KGw5YceljunHFCwn1Aad-41" target="KGw5YceljunHFCwn1Aad-50">
          <mxGeometry relative="1" as="geometry" />
        </mxCell>
        <mxCell id="KGw5YceljunHFCwn1Aad-61" style="edgeStyle=orthogonalEdgeStyle;rounded=0;orthogonalLoop=1;jettySize=auto;html=1;exitX=0.5;exitY=1;exitDx=0;exitDy=0;entryX=1;entryY=0.5;entryDx=0;entryDy=0;" edge="1" parent="1" source="KGw5YceljunHFCwn1Aad-50" target="KGw5YceljunHFCwn1Aad-43">
          <mxGeometry relative="1" as="geometry">
            <mxPoint x="315" y="877.3800000000001" as="targetPoint" />
            <mxPoint x="453.68000000000006" y="790" as="sourcePoint" />
            <Array as="points">
              <mxPoint x="455" y="790" />
              <mxPoint x="455" y="870" />
            </Array>
          </mxGeometry>
        </mxCell>
        <mxCell id="KGw5YceljunHFCwn1Aad-62" style="edgeStyle=orthogonalEdgeStyle;rounded=0;orthogonalLoop=1;jettySize=auto;html=1;exitX=1;exitY=0.5;exitDx=0;exitDy=0;entryX=0;entryY=0.5;entryDx=0;entryDy=0;" edge="1" parent="1" source="KGw5YceljunHFCwn1Aad-46" target="KGw5YceljunHFCwn1Aad-52">
          <mxGeometry relative="1" as="geometry" />
        </mxCell>
        <mxCell id="KGw5YceljunHFCwn1Aad-63" style="edgeStyle=orthogonalEdgeStyle;rounded=0;orthogonalLoop=1;jettySize=auto;html=1;exitX=1;exitY=0.5;exitDx=0;exitDy=0;entryX=0;entryY=0.5;entryDx=0;entryDy=0;" edge="1" parent="1" source="KGw5YceljunHFCwn1Aad-47" target="KGw5YceljunHFCwn1Aad-58">
          <mxGeometry relative="1" as="geometry" />
        </mxCell>
        <mxCell id="KGw5YceljunHFCwn1Aad-64" style="edgeStyle=orthogonalEdgeStyle;rounded=0;orthogonalLoop=1;jettySize=auto;html=1;exitX=0.5;exitY=1;exitDx=0;exitDy=0;entryX=1;entryY=0.5;entryDx=0;entryDy=0;" edge="1" parent="1" source="KGw5YceljunHFCwn1Aad-58" target="KGw5YceljunHFCwn1Aad-49">
          <mxGeometry relative="1" as="geometry">
            <mxPoint x="394.7368421052631" y="1400" as="targetPoint" />
          </mxGeometry>
        </mxCell>
        <mxCell id="KGw5YceljunHFCwn1Aad-68" value="No" style="text;html=1;align=center;verticalAlign=middle;whiteSpace=wrap;rounded=0;" vertex="1" parent="1">
          <mxGeometry x="280" y="415" width="60" height="30" as="geometry" />
        </mxCell>
        <mxCell id="KGw5YceljunHFCwn1Aad-71" value="Main Menu" style="shape=umlFrame;whiteSpace=wrap;html=1;pointerEvents=0;width=80;height=30;fillColor=#dae8fc;strokeColor=#6c8ebf;" vertex="1" parent="1">
          <mxGeometry x="570" y="130" width="200" height="1470" as="geometry" />
        </mxCell>
        <mxCell id="KGw5YceljunHFCwn1Aad-74" value="" style="edgeStyle=segmentEdgeStyle;endArrow=classic;html=1;curved=0;rounded=0;endSize=8;startSize=8;entryX=0;entryY=0.5;entryDx=0;entryDy=0;" edge="1" parent="1" target="KGw5YceljunHFCwn1Aad-30">
          <mxGeometry width="50" height="50" relative="1" as="geometry">
            <mxPoint x="185" y="1400" as="sourcePoint" />
            <mxPoint x="235" y="1350" as="targetPoint" />
            <Array as="points">
              <mxPoint x="110" y="1400" />
              <mxPoint x="110" y="320" />
            </Array>
          </mxGeometry>
        </mxCell>
        <mxCell id="KGw5YceljunHFCwn1Aad-75" value="Rent Battery" style="shape=umlFrame;whiteSpace=wrap;html=1;pointerEvents=0;width=90;height=30;fillColor=#f8cecc;strokeColor=#b85450;" vertex="1" parent="1">
          <mxGeometry x="770" y="130" width="480" height="1470" as="geometry" />
        </mxCell>
        <mxCell id="KGw5YceljunHFCwn1Aad-108" style="edgeStyle=orthogonalEdgeStyle;rounded=0;orthogonalLoop=1;jettySize=auto;html=1;exitX=1;exitY=0.5;exitDx=0;exitDy=0;entryX=0.5;entryY=0;entryDx=0;entryDy=0;" edge="1" parent="1" source="KGw5YceljunHFCwn1Aad-76" target="KGw5YceljunHFCwn1Aad-79">
          <mxGeometry relative="1" as="geometry" />
        </mxCell>
        <mxCell id="KGw5YceljunHFCwn1Aad-111" style="edgeStyle=orthogonalEdgeStyle;rounded=0;orthogonalLoop=1;jettySize=auto;html=1;entryX=0.5;entryY=0;entryDx=0;entryDy=0;" edge="1" parent="1" source="KGw5YceljunHFCwn1Aad-76" target="KGw5YceljunHFCwn1Aad-105">
          <mxGeometry relative="1" as="geometry" />
        </mxCell>
        <mxCell id="KGw5YceljunHFCwn1Aad-214" style="edgeStyle=orthogonalEdgeStyle;rounded=0;orthogonalLoop=1;jettySize=auto;html=1;entryX=0.5;entryY=0;entryDx=0;entryDy=0;" edge="1" parent="1" source="KGw5YceljunHFCwn1Aad-76" target="KGw5YceljunHFCwn1Aad-196">
          <mxGeometry relative="1" as="geometry" />
        </mxCell>
        <mxCell id="KGw5YceljunHFCwn1Aad-267" style="edgeStyle=orthogonalEdgeStyle;rounded=0;orthogonalLoop=1;jettySize=auto;html=1;entryX=0.5;entryY=0;entryDx=0;entryDy=0;" edge="1" parent="1" source="KGw5YceljunHFCwn1Aad-76" target="KGw5YceljunHFCwn1Aad-216">
          <mxGeometry relative="1" as="geometry" />
        </mxCell>
        <mxCell id="KGw5YceljunHFCwn1Aad-269" style="edgeStyle=orthogonalEdgeStyle;rounded=0;orthogonalLoop=1;jettySize=auto;html=1;entryX=0.5;entryY=0;entryDx=0;entryDy=0;" edge="1" parent="1" source="KGw5YceljunHFCwn1Aad-76" target="KGw5YceljunHFCwn1Aad-240">
          <mxGeometry relative="1" as="geometry" />
        </mxCell>
        <mxCell id="KGw5YceljunHFCwn1Aad-291" style="edgeStyle=orthogonalEdgeStyle;rounded=0;orthogonalLoop=1;jettySize=auto;html=1;entryX=0.5;entryY=0;entryDx=0;entryDy=0;" edge="1" parent="1" source="KGw5YceljunHFCwn1Aad-76" target="KGw5YceljunHFCwn1Aad-266">
          <mxGeometry relative="1" as="geometry" />
        </mxCell>
        <mxCell id="KGw5YceljunHFCwn1Aad-321" style="edgeStyle=orthogonalEdgeStyle;rounded=0;orthogonalLoop=1;jettySize=auto;html=1;entryX=0.5;entryY=0;entryDx=0;entryDy=0;" edge="1" parent="1" source="KGw5YceljunHFCwn1Aad-76" target="KGw5YceljunHFCwn1Aad-296">
          <mxGeometry relative="1" as="geometry" />
        </mxCell>
        <mxCell id="KGw5YceljunHFCwn1Aad-322" style="edgeStyle=orthogonalEdgeStyle;rounded=0;orthogonalLoop=1;jettySize=auto;html=1;entryX=0.5;entryY=0;entryDx=0;entryDy=0;" edge="1" parent="1" source="KGw5YceljunHFCwn1Aad-76" target="KGw5YceljunHFCwn1Aad-320">
          <mxGeometry relative="1" as="geometry">
            <Array as="points">
              <mxPoint x="4205" y="225" />
            </Array>
          </mxGeometry>
        </mxCell>
        <mxCell id="KGw5YceljunHFCwn1Aad-355" style="edgeStyle=orthogonalEdgeStyle;rounded=0;orthogonalLoop=1;jettySize=auto;html=1;entryX=0.5;entryY=0;entryDx=0;entryDy=0;" edge="1" parent="1" source="KGw5YceljunHFCwn1Aad-76" target="KGw5YceljunHFCwn1Aad-339">
          <mxGeometry relative="1" as="geometry" />
        </mxCell>
        <mxCell id="KGw5YceljunHFCwn1Aad-76" value="Go to Main Menu" style="rounded=1;whiteSpace=wrap;html=1;fillColor=#dae8fc;strokeColor=#6c8ebf;" vertex="1" parent="1">
          <mxGeometry x="615" y="200" width="115" height="50" as="geometry" />
        </mxCell>
        <mxCell id="KGw5YceljunHFCwn1Aad-78" value="Recive Verification Code" style="rounded=1;whiteSpace=wrap;html=1;fillColor=#e1d5e7;strokeColor=#9673a6;" vertex="1" parent="1">
          <mxGeometry x="187.5" y="950" width="120" height="60" as="geometry" />
        </mxCell>
        <mxCell id="KGw5YceljunHFCwn1Aad-90" style="edgeStyle=orthogonalEdgeStyle;rounded=0;orthogonalLoop=1;jettySize=auto;html=1;exitX=0.5;exitY=1;exitDx=0;exitDy=0;entryX=0.5;entryY=0;entryDx=0;entryDy=0;" edge="1" parent="1" source="KGw5YceljunHFCwn1Aad-79" target="KGw5YceljunHFCwn1Aad-80">
          <mxGeometry relative="1" as="geometry" />
        </mxCell>
        <mxCell id="KGw5YceljunHFCwn1Aad-79" value="Select Battery Tipe" style="rounded=1;whiteSpace=wrap;html=1;fillColor=#f8cecc;strokeColor=#b85450;" vertex="1" parent="1">
          <mxGeometry x="920" y="250" width="110" height="50" as="geometry" />
        </mxCell>
        <mxCell id="KGw5YceljunHFCwn1Aad-89" style="edgeStyle=orthogonalEdgeStyle;rounded=0;orthogonalLoop=1;jettySize=auto;html=1;exitX=0.5;exitY=1;exitDx=0;exitDy=0;entryX=0.5;entryY=0;entryDx=0;entryDy=0;" edge="1" parent="1" source="KGw5YceljunHFCwn1Aad-80" target="KGw5YceljunHFCwn1Aad-85">
          <mxGeometry relative="1" as="geometry" />
        </mxCell>
        <mxCell id="KGw5YceljunHFCwn1Aad-80" value="If Battery Available" style="rounded=1;whiteSpace=wrap;html=1;fillColor=#f8cecc;strokeColor=#b85450;" vertex="1" parent="1">
          <mxGeometry x="920" y="340" width="110" height="50" as="geometry" />
        </mxCell>
        <mxCell id="KGw5YceljunHFCwn1Aad-101" style="edgeStyle=orthogonalEdgeStyle;rounded=0;orthogonalLoop=1;jettySize=auto;html=1;exitX=1;exitY=0.5;exitDx=0;exitDy=0;entryX=1;entryY=0.5;entryDx=0;entryDy=0;" edge="1" parent="1" source="KGw5YceljunHFCwn1Aad-81" target="KGw5YceljunHFCwn1Aad-79">
          <mxGeometry relative="1" as="geometry" />
        </mxCell>
        <mxCell id="KGw5YceljunHFCwn1Aad-81" value="Notify User to Choose Another&lt;span style=&quot;caret-color: rgba(0, 0, 0, 0); color: rgba(0, 0, 0, 0); font-family: monospace; font-size: 0px; text-align: start; white-space: nowrap;&quot;&gt;%3CmxGraphModel%3E%3Croot%3E%3CmxCell%20id%3D%220%22%2F%3E%3CmxCell%20id%3D%221%22%20parent%3D%220%22%2F%3E%3CmxCell%20id%3D%222%22%20value%3D%22Check%20Battery%26amp%3Bnbsp%3B%26lt%3Bspan%20style%3D%26quot%3Bcaret-color%3A%20rgba(0%2C%200%2C%200%2C%200)%3B%20color%3A%20rgba(0%2C%200%2C%200%2C%200)%3B%20font-family%3A%20monospace%3B%20font-size%3A%200px%3B%20text-align%3A%20start%3B%20white-space%3A%20nowrap%3B%26quot%3B%26gt%3B%253CmxGraphModel%253E%253Croot%253E%253CmxCell%2520id%253D%25220%2522%252F%253E%253CmxCell%2520id%253D%25221%2522%2520parent%253D%25220%2522%252F%253E%253CmxCell%2520id%253D%25222%2522%2520value%253D%2522Select%2520Battery%2520Tipe%2522%2520style%253D%2522rounded%253D1%253BwhiteSpace%253Dwrap%253Bhtml%253D1%253BfillColor%253D%2523f8cecc%253BstrokeColor%253D%2523b85450%253B%2522%2520vertex%253D%25221%2522%2520parent%253D%25221%2522%253E%253CmxGeometry%2520x%253D%2522920%2522%2520y%253D%2522250%2522%2520width%253D%2522110%2522%2520height%253D%252250%2522%2520as%253D%2522geometry%2522%252F%253E%253C%252FmxCell%253E%253C%252Froot%253E%253C%252FmxGraphModel%253E%26lt%3B%2Fspan%26gt%3BAvailability%22%20style%3D%22rounded%3D1%3BwhiteSpace%3Dwrap%3Bhtml%3D1%3BfillColor%3D%23f8cecc%3BstrokeColor%3D%23b85450%3B%22%20vertex%3D%221%22%20parent%3D%221%22%3E%3CmxGeometry%20x%3D%22920%22%20y%3D%22340%22%20width%3D%22110%22%20height%3D%2250%22%20as%3D%22geometry%22%2F%3E%3C%2FmxCell%3E%3C%2Froot%3E%3C%2FmxGraphModel%3E&lt;/span&gt;&lt;span style=&quot;caret-color: rgba(0, 0, 0, 0); color: rgba(0, 0, 0, 0); font-family: monospace; font-size: 0px; text-align: start; white-space: nowrap;&quot;&gt;%3CmxGraphModel%3E%3Croot%3E%3CmxCell%20id%3D%220%22%2F%3E%3CmxCell%20id%3D%221%22%20parent%3D%220%22%2F%3E%3CmxCell%20id%3D%222%22%20value%3D%22Check%20Battery%26amp%3Bnbsp%3B%26lt%3Bspan%20style%3D%26quot%3Bcaret-color%3A%20rgba(0%2C%200%2C%200%2C%200)%3B%20color%3A%20rgba(0%2C%200%2C%200%2C%200)%3B%20font-family%3A%20monospace%3B%20font-size%3A%200px%3B%20text-align%3A%20start%3B%20white-space%3A%20nowrap%3B%26quot%3B%26gt%3B%253CmxGraphModel%253E%253Croot%253E%253CmxCell%2520id%253D%25220%2522%252F%253E%253CmxCell%2520id%253D%25221%2522%2520parent%253D%25220%2522%252F%253E%253CmxCell%2520id%253D%25222%2522%2520value%253D%2522Select%2520Battery%2520Tipe%2522%2520style%253D%2522rounded%253D1%253BwhiteSpace%253Dwrap%253Bhtml%253D1%253BfillColor%253D%2523f8cecc%253BstrokeColor%253D%2523b85450%253B%2522%2520vertex%253D%25221%2522%2520parent%253D%25221%2522%253E%253CmxGeometry%2520x%253D%2522920%2522%2520y%253D%2522250%2522%2520width%253D%2522110%2522%2520height%253D%252250%2522%2520as%253D%2522geometry%2522%252F%253E%253C%252FmxCell%253E%253C%252Froot%253E%253C%252FmxGraphModel%253E%26lt%3B%2Fspan%26gt%3BAvailability%22%20style%3D%22rounded%3D1%3BwhiteSpace%3Dwrap%3Bhtml%3D1%3BfillColor%3D%23f8cecc%3BstrokeColor%3D%23b85450%3B%22%20vertex%3D%221%22%20parent%3D%221%22%3E%3CmxGeometry%20x%3D%22920%22%20y%3D%22340%22%20width%3D%22110%22%20height%3D%2250%22%20as%3D%22geometry%22%2F%3E%3C%2FmxCell%3E%3C%2Froot%3E%3C%2FmxGraphModel%3E&lt;/span&gt;" style="rounded=1;whiteSpace=wrap;html=1;fillColor=#f8cecc;strokeColor=#b85450;" vertex="1" parent="1">
          <mxGeometry x="1070" y="445" width="111" height="50" as="geometry" />
        </mxCell>
        <mxCell id="KGw5YceljunHFCwn1Aad-83" style="edgeStyle=orthogonalEdgeStyle;rounded=0;orthogonalLoop=1;jettySize=auto;html=1;exitX=0.5;exitY=1;exitDx=0;exitDy=0;entryX=0.5;entryY=0;entryDx=0;entryDy=0;" edge="1" parent="1" source="KGw5YceljunHFCwn1Aad-85" target="KGw5YceljunHFCwn1Aad-155">
          <mxGeometry relative="1" as="geometry">
            <mxPoint x="975" y="565" as="targetPoint" />
          </mxGeometry>
        </mxCell>
        <mxCell id="KGw5YceljunHFCwn1Aad-84" value="Yes" style="edgeLabel;html=1;align=center;verticalAlign=middle;resizable=0;points=[];" vertex="1" connectable="0" parent="KGw5YceljunHFCwn1Aad-83">
          <mxGeometry x="-0.4" relative="1" as="geometry">
            <mxPoint as="offset" />
          </mxGeometry>
        </mxCell>
        <mxCell id="KGw5YceljunHFCwn1Aad-88" style="edgeStyle=orthogonalEdgeStyle;rounded=0;orthogonalLoop=1;jettySize=auto;html=1;exitX=1;exitY=0.5;exitDx=0;exitDy=0;entryX=0;entryY=0.5;entryDx=0;entryDy=0;" edge="1" parent="1" source="KGw5YceljunHFCwn1Aad-85" target="KGw5YceljunHFCwn1Aad-81">
          <mxGeometry relative="1" as="geometry" />
        </mxCell>
        <mxCell id="KGw5YceljunHFCwn1Aad-85" value="" style="rhombus;whiteSpace=wrap;html=1;fillColor=#f8cecc;strokeColor=#b85450;" vertex="1" parent="1">
          <mxGeometry x="935" y="430" width="80" height="80" as="geometry" />
        </mxCell>
        <mxCell id="KGw5YceljunHFCwn1Aad-86" value="No" style="text;html=1;align=center;verticalAlign=middle;whiteSpace=wrap;rounded=0;" vertex="1" parent="1">
          <mxGeometry x="1005" y="435" width="60" height="30" as="geometry" />
        </mxCell>
        <mxCell id="KGw5YceljunHFCwn1Aad-107" style="edgeStyle=orthogonalEdgeStyle;rounded=0;orthogonalLoop=1;jettySize=auto;html=1;exitX=1;exitY=0.5;exitDx=0;exitDy=0;entryX=0;entryY=0.5;entryDx=0;entryDy=0;" edge="1" parent="1" source="KGw5YceljunHFCwn1Aad-99" target="KGw5YceljunHFCwn1Aad-105">
          <mxGeometry relative="1" as="geometry">
            <Array as="points">
              <mxPoint x="1020" y="685" />
              <mxPoint x="1020" y="690" />
              <mxPoint x="1230" y="690" />
              <mxPoint x="1230" y="275" />
            </Array>
          </mxGeometry>
        </mxCell>
        <mxCell id="KGw5YceljunHFCwn1Aad-159" style="edgeStyle=orthogonalEdgeStyle;rounded=0;orthogonalLoop=1;jettySize=auto;html=1;exitX=0.5;exitY=1;exitDx=0;exitDy=0;entryX=0.5;entryY=0;entryDx=0;entryDy=0;" edge="1" parent="1" source="KGw5YceljunHFCwn1Aad-99" target="KGw5YceljunHFCwn1Aad-156">
          <mxGeometry relative="1" as="geometry" />
        </mxCell>
        <mxCell id="KGw5YceljunHFCwn1Aad-99" value="Arrange Pickup/Drop-off" style="rounded=1;whiteSpace=wrap;html=1;fillColor=#f8cecc;strokeColor=#b85450;" vertex="1" parent="1">
          <mxGeometry x="920" y="660" width="110" height="50" as="geometry" />
        </mxCell>
        <mxCell id="KGw5YceljunHFCwn1Aad-104" value="Delivery&amp;nbsp;" style="shape=umlFrame;whiteSpace=wrap;html=1;pointerEvents=0;width=80;height=30;fillColor=#d5e8d4;strokeColor=#82b366;" vertex="1" parent="1">
          <mxGeometry x="1250" y="130" width="350" height="1470" as="geometry" />
        </mxCell>
        <mxCell id="KGw5YceljunHFCwn1Aad-105" value="Select Pickup or Drop-off" style="rounded=1;whiteSpace=wrap;html=1;fillColor=#d5e8d4;strokeColor=#82b366;" vertex="1" parent="1">
          <mxGeometry x="1370" y="250" width="110" height="50" as="geometry" />
        </mxCell>
        <mxCell id="KGw5YceljunHFCwn1Aad-114" value="" style="line;strokeWidth=2;html=1;" vertex="1" parent="1">
          <mxGeometry x="1300" y="360" width="270" height="10" as="geometry" />
        </mxCell>
        <mxCell id="KGw5YceljunHFCwn1Aad-139" style="edgeStyle=orthogonalEdgeStyle;rounded=0;orthogonalLoop=1;jettySize=auto;html=1;exitX=0.5;exitY=1;exitDx=0;exitDy=0;entryX=0.5;entryY=0;entryDx=0;entryDy=0;" edge="1" parent="1" source="KGw5YceljunHFCwn1Aad-117" target="KGw5YceljunHFCwn1Aad-132">
          <mxGeometry relative="1" as="geometry" />
        </mxCell>
        <mxCell id="KGw5YceljunHFCwn1Aad-117" value="Pickup (Take it)" style="rounded=1;whiteSpace=wrap;html=1;fillColor=#d5e8d4;strokeColor=#82b366;" vertex="1" parent="1">
          <mxGeometry x="1300" y="425" width="110" height="50" as="geometry" />
        </mxCell>
        <mxCell id="KGw5YceljunHFCwn1Aad-141" style="edgeStyle=orthogonalEdgeStyle;rounded=0;orthogonalLoop=1;jettySize=auto;html=1;exitX=0.5;exitY=1;exitDx=0;exitDy=0;entryX=0.5;entryY=0;entryDx=0;entryDy=0;" edge="1" parent="1" source="KGw5YceljunHFCwn1Aad-118" target="KGw5YceljunHFCwn1Aad-136">
          <mxGeometry relative="1" as="geometry" />
        </mxCell>
        <mxCell id="KGw5YceljunHFCwn1Aad-118" value="&amp;nbsp;Drop-off (Deliver it)" style="rounded=1;whiteSpace=wrap;html=1;fillColor=#d5e8d4;strokeColor=#82b366;" vertex="1" parent="1">
          <mxGeometry x="1460" y="425" width="110" height="50" as="geometry" />
        </mxCell>
        <mxCell id="KGw5YceljunHFCwn1Aad-122" style="edgeStyle=orthogonalEdgeStyle;rounded=0;orthogonalLoop=1;jettySize=auto;html=1;exitX=0.5;exitY=1;exitDx=0;exitDy=0;entryX=0.465;entryY=0.738;entryDx=0;entryDy=0;entryPerimeter=0;" edge="1" parent="1" source="KGw5YceljunHFCwn1Aad-105" target="KGw5YceljunHFCwn1Aad-114">
          <mxGeometry relative="1" as="geometry" />
        </mxCell>
        <mxCell id="KGw5YceljunHFCwn1Aad-130" value="" style="endArrow=classic;html=1;rounded=0;entryX=0.5;entryY=0;entryDx=0;entryDy=0;exitX=0.208;exitY=0.643;exitDx=0;exitDy=0;exitPerimeter=0;" edge="1" parent="1" source="KGw5YceljunHFCwn1Aad-114" target="KGw5YceljunHFCwn1Aad-117">
          <mxGeometry width="50" height="50" relative="1" as="geometry">
            <mxPoint x="1350" y="360" as="sourcePoint" />
            <mxPoint x="1400" y="310" as="targetPoint" />
          </mxGeometry>
        </mxCell>
        <mxCell id="KGw5YceljunHFCwn1Aad-131" value="" style="endArrow=classic;html=1;rounded=0;entryX=0.5;entryY=0;entryDx=0;entryDy=0;exitX=0.208;exitY=0.643;exitDx=0;exitDy=0;exitPerimeter=0;" edge="1" parent="1">
          <mxGeometry width="50" height="50" relative="1" as="geometry">
            <mxPoint x="1515.5" y="366" as="sourcePoint" />
            <mxPoint x="1514.5" y="425" as="targetPoint" />
          </mxGeometry>
        </mxCell>
        <mxCell id="KGw5YceljunHFCwn1Aad-140" style="edgeStyle=orthogonalEdgeStyle;rounded=0;orthogonalLoop=1;jettySize=auto;html=1;exitX=0.5;exitY=1;exitDx=0;exitDy=0;entryX=0.5;entryY=0;entryDx=0;entryDy=0;" edge="1" parent="1" source="KGw5YceljunHFCwn1Aad-132" target="KGw5YceljunHFCwn1Aad-133">
          <mxGeometry relative="1" as="geometry" />
        </mxCell>
        <mxCell id="KGw5YceljunHFCwn1Aad-132" value="Select Pickup time" style="rounded=1;whiteSpace=wrap;html=1;fillColor=#d5e8d4;strokeColor=#82b366;" vertex="1" parent="1">
          <mxGeometry x="1300" y="520" width="110" height="50" as="geometry" />
        </mxCell>
        <mxCell id="KGw5YceljunHFCwn1Aad-133" value="Confirm Pickup" style="rounded=1;whiteSpace=wrap;html=1;fillColor=#d5e8d4;strokeColor=#82b366;" vertex="1" parent="1">
          <mxGeometry x="1300" y="620" width="110" height="50" as="geometry" />
        </mxCell>
        <mxCell id="KGw5YceljunHFCwn1Aad-134" value="Select Payment Method&lt;span style=&quot;caret-color: rgba(0, 0, 0, 0); color: rgba(0, 0, 0, 0); font-family: monospace; font-size: 0px; text-align: start; white-space: nowrap;&quot;&gt;%3CmxGraphModel%3E%3Croot%3E%3CmxCell%20id%3D%220%22%2F%3E%3CmxCell%20id%3D%221%22%20parent%3D%220%22%2F%3E%3CmxCell%20id%3D%222%22%20value%3D%22Arrange%20Pickup%2FDrop-off%22%20style%3D%22rounded%3D1%3BwhiteSpace%3Dwrap%3Bhtml%3D1%3BfillColor%3D%23f8cecc%3BstrokeColor%3D%23b85450%3B%22%20vertex%3D%221%22%20parent%3D%221%22%3E%3CmxGeometry%20x%3D%22920%22%20y%3D%22660%22%20width%3D%22110%22%20height%3D%2250%22%20as%3D%22geometry%22%2F%3E%3C%2FmxCell%3E%3C%2Froot%3E%3C%2FmxGraphModel%3E&lt;/span&gt;&lt;span style=&quot;caret-color: rgba(0, 0, 0, 0); color: rgba(0, 0, 0, 0); font-family: monospace; font-size: 0px; text-align: start; white-space: nowrap;&quot;&gt;%3CmxGraphModel%3E%3Croot%3E%3CmxCell%20id%3D%220%22%2F%3E%3CmxCell%20id%3D%221%22%20parent%3D%220%22%2F%3E%3CmxCell%20id%3D%222%22%20value%3D%22Arrange%20Pickup%2FDrop-off%22%20style%3D%22rounded%3D1%3BwhiteSpace%3Dwrap%3Bhtml%3D1%3BfillColor%3D%23f8cecc%3BstrokeColor%3D%23b85450%3B%22%20vertex%3D%221%22%20parent%3D%221%22%3E%3CmxGeometry%20x%3D%22920%22%20y%3D%22660%22%20width%3D%22110%22%20height%3D%2250%22%20as%3D%22geometry%22%2F%3E%3C%2FmxCell%3E%3C%2Froot%3E%3C%2FmxGraphModel%3E&lt;/span&gt;" style="rounded=1;whiteSpace=wrap;html=1;fillColor=#fff2cc;strokeColor=#d6b656;" vertex="1" parent="1">
          <mxGeometry x="1720" y="250" width="110" height="50" as="geometry" />
        </mxCell>
        <mxCell id="KGw5YceljunHFCwn1Aad-142" style="edgeStyle=orthogonalEdgeStyle;rounded=0;orthogonalLoop=1;jettySize=auto;html=1;exitX=0.5;exitY=1;exitDx=0;exitDy=0;" edge="1" parent="1" source="KGw5YceljunHFCwn1Aad-136" target="KGw5YceljunHFCwn1Aad-138">
          <mxGeometry relative="1" as="geometry" />
        </mxCell>
        <mxCell id="KGw5YceljunHFCwn1Aad-136" value="Enter Delivery Address" style="rounded=1;whiteSpace=wrap;html=1;fillColor=#d5e8d4;strokeColor=#82b366;" vertex="1" parent="1">
          <mxGeometry x="1460" y="520" width="110" height="50" as="geometry" />
        </mxCell>
        <mxCell id="KGw5YceljunHFCwn1Aad-137" value="Confirm Drop-off Schedule" style="rounded=1;whiteSpace=wrap;html=1;fillColor=#d5e8d4;strokeColor=#82b366;" vertex="1" parent="1">
          <mxGeometry x="1460" y="720" width="110" height="50" as="geometry" />
        </mxCell>
        <mxCell id="KGw5YceljunHFCwn1Aad-143" style="edgeStyle=orthogonalEdgeStyle;rounded=0;orthogonalLoop=1;jettySize=auto;html=1;exitX=0.5;exitY=1;exitDx=0;exitDy=0;entryX=0.5;entryY=0;entryDx=0;entryDy=0;" edge="1" parent="1" source="KGw5YceljunHFCwn1Aad-138" target="KGw5YceljunHFCwn1Aad-137">
          <mxGeometry relative="1" as="geometry" />
        </mxCell>
        <mxCell id="KGw5YceljunHFCwn1Aad-138" value="Verify Delivery Address" style="rounded=1;whiteSpace=wrap;html=1;fillColor=#d5e8d4;strokeColor=#82b366;" vertex="1" parent="1">
          <mxGeometry x="1460" y="620" width="110" height="50" as="geometry" />
        </mxCell>
        <mxCell id="KGw5YceljunHFCwn1Aad-145" value="Payment" style="shape=umlFrame;whiteSpace=wrap;html=1;pointerEvents=0;width=80;height=30;fillColor=#fff2cc;strokeColor=#d6b656;" vertex="1" parent="1">
          <mxGeometry x="1600" y="130" width="350" height="1470" as="geometry" />
        </mxCell>
        <mxCell id="KGw5YceljunHFCwn1Aad-146" style="edgeStyle=orthogonalEdgeStyle;rounded=0;orthogonalLoop=1;jettySize=auto;html=1;entryX=0.562;entryY=0.062;entryDx=0;entryDy=0;entryPerimeter=0;" edge="1" parent="1" source="KGw5YceljunHFCwn1Aad-76" target="KGw5YceljunHFCwn1Aad-134">
          <mxGeometry relative="1" as="geometry">
            <Array as="points">
              <mxPoint x="1782" y="225" />
            </Array>
          </mxGeometry>
        </mxCell>
        <mxCell id="KGw5YceljunHFCwn1Aad-152" value="" style="edgeStyle=orthogonalEdgeStyle;rounded=0;orthogonalLoop=1;jettySize=auto;html=1;exitX=0.505;exitY=0.357;exitDx=0;exitDy=0;exitPerimeter=0;" edge="1" parent="1" source="KGw5YceljunHFCwn1Aad-148" target="KGw5YceljunHFCwn1Aad-151">
          <mxGeometry relative="1" as="geometry">
            <Array as="points">
              <mxPoint x="1430" y="844" />
            </Array>
          </mxGeometry>
        </mxCell>
        <mxCell id="KGw5YceljunHFCwn1Aad-148" value="" style="line;strokeWidth=2;html=1;" vertex="1" parent="1">
          <mxGeometry x="1290" y="840" width="280" height="10" as="geometry" />
        </mxCell>
        <mxCell id="KGw5YceljunHFCwn1Aad-149" style="edgeStyle=orthogonalEdgeStyle;rounded=0;orthogonalLoop=1;jettySize=auto;html=1;exitX=0.5;exitY=1;exitDx=0;exitDy=0;entryX=0.229;entryY=0.833;entryDx=0;entryDy=0;entryPerimeter=0;" edge="1" parent="1" source="KGw5YceljunHFCwn1Aad-133" target="KGw5YceljunHFCwn1Aad-148">
          <mxGeometry relative="1" as="geometry" />
        </mxCell>
        <mxCell id="KGw5YceljunHFCwn1Aad-154" style="edgeStyle=orthogonalEdgeStyle;rounded=0;orthogonalLoop=1;jettySize=auto;html=1;exitX=1;exitY=0.5;exitDx=0;exitDy=0;entryX=0;entryY=0.5;entryDx=0;entryDy=0;" edge="1" parent="1" source="KGw5YceljunHFCwn1Aad-151" target="KGw5YceljunHFCwn1Aad-134">
          <mxGeometry relative="1" as="geometry">
            <Array as="points">
              <mxPoint x="1590" y="935" />
              <mxPoint x="1590" y="275" />
            </Array>
          </mxGeometry>
        </mxCell>
        <mxCell id="KGw5YceljunHFCwn1Aad-151" value="Choose Payment Method" style="rounded=1;whiteSpace=wrap;html=1;fillColor=#d5e8d4;strokeColor=#82b366;" vertex="1" parent="1">
          <mxGeometry x="1375" y="910" width="110" height="50" as="geometry" />
        </mxCell>
        <mxCell id="KGw5YceljunHFCwn1Aad-157" style="edgeStyle=orthogonalEdgeStyle;rounded=0;orthogonalLoop=1;jettySize=auto;html=1;exitX=0.5;exitY=1;exitDx=0;exitDy=0;entryX=0.5;entryY=0;entryDx=0;entryDy=0;" edge="1" parent="1" source="KGw5YceljunHFCwn1Aad-155" target="KGw5YceljunHFCwn1Aad-99">
          <mxGeometry relative="1" as="geometry" />
        </mxCell>
        <mxCell id="KGw5YceljunHFCwn1Aad-155" value="Select Rental Duration" style="rounded=1;whiteSpace=wrap;html=1;fillColor=#f8cecc;strokeColor=#b85450;" vertex="1" parent="1">
          <mxGeometry x="920" y="570" width="111" height="50" as="geometry" />
        </mxCell>
        <mxCell id="KGw5YceljunHFCwn1Aad-156" value="Update Battery Stock" style="rounded=1;whiteSpace=wrap;html=1;fillColor=#f8cecc;strokeColor=#b85450;" vertex="1" parent="1">
          <mxGeometry x="920" y="750" width="110" height="50" as="geometry" />
        </mxCell>
        <mxCell id="KGw5YceljunHFCwn1Aad-168" style="edgeStyle=orthogonalEdgeStyle;rounded=0;orthogonalLoop=1;jettySize=auto;html=1;exitX=0.5;exitY=1;exitDx=0;exitDy=0;entryX=0.5;entryY=0;entryDx=0;entryDy=0;" edge="1" parent="1" source="KGw5YceljunHFCwn1Aad-160" target="KGw5YceljunHFCwn1Aad-165">
          <mxGeometry relative="1" as="geometry" />
        </mxCell>
        <mxCell id="KGw5YceljunHFCwn1Aad-160" value="Credit Card" style="rounded=1;whiteSpace=wrap;html=1;fillColor=#fff2cc;strokeColor=#d6b656;" vertex="1" parent="1">
          <mxGeometry x="1630" y="380" width="110" height="50" as="geometry" />
        </mxCell>
        <mxCell id="KGw5YceljunHFCwn1Aad-161" value="" style="line;strokeWidth=2;html=1;" vertex="1" parent="1">
          <mxGeometry x="1640" y="315" width="270" height="10" as="geometry" />
        </mxCell>
        <mxCell id="KGw5YceljunHFCwn1Aad-178" style="edgeStyle=orthogonalEdgeStyle;rounded=0;orthogonalLoop=1;jettySize=auto;html=1;exitX=0.5;exitY=1;exitDx=0;exitDy=0;entryX=0.5;entryY=0;entryDx=0;entryDy=0;" edge="1" parent="1" source="KGw5YceljunHFCwn1Aad-162" target="KGw5YceljunHFCwn1Aad-172">
          <mxGeometry relative="1" as="geometry" />
        </mxCell>
        <mxCell id="KGw5YceljunHFCwn1Aad-162" value="Virtual Account" style="rounded=1;whiteSpace=wrap;html=1;fillColor=#fff2cc;strokeColor=#d6b656;" vertex="1" parent="1">
          <mxGeometry x="1810" y="380" width="110" height="50" as="geometry" />
        </mxCell>
        <mxCell id="KGw5YceljunHFCwn1Aad-163" value="" style="endArrow=classic;html=1;rounded=0;" edge="1" parent="1">
          <mxGeometry width="50" height="50" relative="1" as="geometry">
            <mxPoint x="1860" y="320" as="sourcePoint" />
            <mxPoint x="1860" y="380" as="targetPoint" />
          </mxGeometry>
        </mxCell>
        <mxCell id="KGw5YceljunHFCwn1Aad-164" value="" style="endArrow=classic;html=1;rounded=0;" edge="1" parent="1">
          <mxGeometry width="50" height="50" relative="1" as="geometry">
            <mxPoint x="1684.44" y="320" as="sourcePoint" />
            <mxPoint x="1684.44" y="380" as="targetPoint" />
          </mxGeometry>
        </mxCell>
        <mxCell id="KGw5YceljunHFCwn1Aad-169" style="edgeStyle=orthogonalEdgeStyle;rounded=0;orthogonalLoop=1;jettySize=auto;html=1;exitX=0.5;exitY=1;exitDx=0;exitDy=0;entryX=0.5;entryY=0;entryDx=0;entryDy=0;" edge="1" parent="1" source="KGw5YceljunHFCwn1Aad-165" target="KGw5YceljunHFCwn1Aad-166">
          <mxGeometry relative="1" as="geometry" />
        </mxCell>
        <mxCell id="KGw5YceljunHFCwn1Aad-165" value="Enter Credit Card Number, Expired number, CVV" style="rounded=1;whiteSpace=wrap;html=1;fillColor=#fff2cc;strokeColor=#d6b656;" vertex="1" parent="1">
          <mxGeometry x="1630" y="470" width="110" height="50" as="geometry" />
        </mxCell>
        <mxCell id="KGw5YceljunHFCwn1Aad-170" style="edgeStyle=orthogonalEdgeStyle;rounded=0;orthogonalLoop=1;jettySize=auto;html=1;exitX=0.5;exitY=1;exitDx=0;exitDy=0;entryX=0.5;entryY=0;entryDx=0;entryDy=0;" edge="1" parent="1" source="KGw5YceljunHFCwn1Aad-166" target="KGw5YceljunHFCwn1Aad-167">
          <mxGeometry relative="1" as="geometry" />
        </mxCell>
        <mxCell id="KGw5YceljunHFCwn1Aad-166" value="Process Credit Card" style="rounded=1;whiteSpace=wrap;html=1;fillColor=#fff2cc;strokeColor=#d6b656;" vertex="1" parent="1">
          <mxGeometry x="1630" y="560" width="110" height="50" as="geometry" />
        </mxCell>
        <mxCell id="KGw5YceljunHFCwn1Aad-167" value="Verify Payment&lt;span style=&quot;caret-color: rgba(0, 0, 0, 0); color: rgba(0, 0, 0, 0); font-family: monospace; font-size: 0px; text-align: start; white-space: nowrap;&quot;&gt;%3CmxGraphModel%3E%3Croot%3E%3CmxCell%20id%3D%220%22%2F%3E%3CmxCell%20id%3D%221%22%20parent%3D%220%22%2F%3E%3CmxCell%20id%3D%222%22%20value%3D%22Credit%20Card%22%20style%3D%22rounded%3D1%3BwhiteSpace%3Dwrap%3Bhtml%3D1%3BfillColor%3D%23fff2cc%3BstrokeColor%3D%23d6b656%3B%22%20vertex%3D%221%22%20parent%3D%221%22%3E%3CmxGeometry%20x%3D%221630%22%20y%3D%22380%22%20width%3D%22110%22%20height%3D%2250%22%20as%3D%22geometry%22%2F%3E%3C%2FmxCell%3E%3C%2Froot%3E%3C%2FmxGraphModel%3E&lt;/span&gt;" style="rounded=1;whiteSpace=wrap;html=1;fillColor=#fff2cc;strokeColor=#d6b656;" vertex="1" parent="1">
          <mxGeometry x="1630" y="650" width="110" height="50" as="geometry" />
        </mxCell>
        <mxCell id="KGw5YceljunHFCwn1Aad-171" value="Confirm Payment&lt;span style=&quot;caret-color: rgba(0, 0, 0, 0); color: rgba(0, 0, 0, 0); font-family: monospace; font-size: 0px; text-align: start; white-space: nowrap;&quot;&gt;%3CmxGraphModel%3E%3Croot%3E%3CmxCell%20id%3D%220%22%2F%3E%3CmxCell%20id%3D%221%22%20parent%3D%220%22%2F%3E%3CmxCell%20id%3D%222%22%20value%3D%22Credit%20Card%22%20style%3D%22rounded%3D1%3BwhiteSpace%3Dwrap%3Bhtml%3D1%3BfillColor%3D%23fff2cc%3BstrokeColor%3D%23d6b656%3B%22%20vertex%3D%221%22%20parent%3D%221%22%3E%3CmxGeometry%20x%3D%221630%22%20y%3D%22380%22%20width%3D%22110%22%20height%3D%2250%22%20as%3D%22geometry%22%2F%3E%3C%2FmxCell%3E%3C%2Froot%3E%3C%2FmxGraphModel%3E&lt;/span&gt;" style="rounded=1;whiteSpace=wrap;html=1;fillColor=#fff2cc;strokeColor=#d6b656;" vertex="1" parent="1">
          <mxGeometry x="1630" y="740" width="110" height="50" as="geometry" />
        </mxCell>
        <mxCell id="KGw5YceljunHFCwn1Aad-179" style="edgeStyle=orthogonalEdgeStyle;rounded=0;orthogonalLoop=1;jettySize=auto;html=1;exitX=0.5;exitY=1;exitDx=0;exitDy=0;entryX=0.5;entryY=0;entryDx=0;entryDy=0;" edge="1" parent="1" source="KGw5YceljunHFCwn1Aad-172" target="KGw5YceljunHFCwn1Aad-173">
          <mxGeometry relative="1" as="geometry" />
        </mxCell>
        <mxCell id="KGw5YceljunHFCwn1Aad-172" value="Select bank for process payment via VA" style="rounded=1;whiteSpace=wrap;html=1;fillColor=#fff2cc;strokeColor=#d6b656;" vertex="1" parent="1">
          <mxGeometry x="1810" y="470" width="110" height="50" as="geometry" />
        </mxCell>
        <mxCell id="KGw5YceljunHFCwn1Aad-180" style="edgeStyle=orthogonalEdgeStyle;rounded=0;orthogonalLoop=1;jettySize=auto;html=1;exitX=0.5;exitY=1;exitDx=0;exitDy=0;entryX=0.5;entryY=0;entryDx=0;entryDy=0;" edge="1" parent="1" source="KGw5YceljunHFCwn1Aad-173" target="KGw5YceljunHFCwn1Aad-174">
          <mxGeometry relative="1" as="geometry" />
        </mxCell>
        <mxCell id="KGw5YceljunHFCwn1Aad-173" value="Get VA code" style="rounded=1;whiteSpace=wrap;html=1;fillColor=#fff2cc;strokeColor=#d6b656;" vertex="1" parent="1">
          <mxGeometry x="1810" y="560" width="110" height="50" as="geometry" />
        </mxCell>
        <mxCell id="KGw5YceljunHFCwn1Aad-181" style="edgeStyle=orthogonalEdgeStyle;rounded=0;orthogonalLoop=1;jettySize=auto;html=1;exitX=0.5;exitY=1;exitDx=0;exitDy=0;entryX=0.5;entryY=0;entryDx=0;entryDy=0;" edge="1" parent="1" source="KGw5YceljunHFCwn1Aad-174" target="KGw5YceljunHFCwn1Aad-175">
          <mxGeometry relative="1" as="geometry" />
        </mxCell>
        <mxCell id="KGw5YceljunHFCwn1Aad-174" value="Enter VA code" style="rounded=1;whiteSpace=wrap;html=1;fillColor=#fff2cc;strokeColor=#d6b656;" vertex="1" parent="1">
          <mxGeometry x="1810" y="650" width="110" height="50" as="geometry" />
        </mxCell>
        <mxCell id="KGw5YceljunHFCwn1Aad-182" style="edgeStyle=orthogonalEdgeStyle;rounded=0;orthogonalLoop=1;jettySize=auto;html=1;exitX=0.5;exitY=1;exitDx=0;exitDy=0;entryX=0.5;entryY=0;entryDx=0;entryDy=0;" edge="1" parent="1" source="KGw5YceljunHFCwn1Aad-175" target="KGw5YceljunHFCwn1Aad-176">
          <mxGeometry relative="1" as="geometry" />
        </mxCell>
        <mxCell id="KGw5YceljunHFCwn1Aad-175" value="Process Virtual Acoount" style="rounded=1;whiteSpace=wrap;html=1;fillColor=#fff2cc;strokeColor=#d6b656;" vertex="1" parent="1">
          <mxGeometry x="1810" y="740" width="110" height="50" as="geometry" />
        </mxCell>
        <mxCell id="KGw5YceljunHFCwn1Aad-183" style="edgeStyle=orthogonalEdgeStyle;rounded=0;orthogonalLoop=1;jettySize=auto;html=1;exitX=0.5;exitY=1;exitDx=0;exitDy=0;entryX=0.5;entryY=0;entryDx=0;entryDy=0;" edge="1" parent="1" source="KGw5YceljunHFCwn1Aad-176" target="KGw5YceljunHFCwn1Aad-177">
          <mxGeometry relative="1" as="geometry" />
        </mxCell>
        <mxCell id="KGw5YceljunHFCwn1Aad-176" value="Verify Pay&lt;span style=&quot;caret-color: rgba(0, 0, 0, 0); color: rgba(0, 0, 0, 0); font-family: monospace; font-size: 0px; text-align: start; white-space: nowrap;&quot;&gt;%3CmxGraphModel%3E%3Croot%3E%3CmxCell%20id%3D%220%22%2F%3E%3CmxCell%20id%3D%221%22%20parent%3D%220%22%2F%3E%3CmxCell%20id%3D%222%22%20value%3D%22Enter%20VA%20code%22%20style%3D%22rounded%3D1%3BwhiteSpace%3Dwrap%3Bhtml%3D1%3BfillColor%3D%23fff2cc%3BstrokeColor%3D%23d6b656%3B%22%20vertex%3D%221%22%20parent%3D%221%22%3E%3CmxGeometry%20x%3D%221810%22%20y%3D%22650%22%20width%3D%22110%22%20height%3D%2250%22%20as%3D%22geometry%22%2F%3E%3C%2FmxCell%3E%3C%2Froot%3E%3C%2FmxGraphModel%3E&lt;/span&gt;ment" style="rounded=1;whiteSpace=wrap;html=1;fillColor=#fff2cc;strokeColor=#d6b656;" vertex="1" parent="1">
          <mxGeometry x="1810" y="830" width="110" height="50" as="geometry" />
        </mxCell>
        <mxCell id="KGw5YceljunHFCwn1Aad-177" value="Confirm Pay&lt;span style=&quot;caret-color: rgba(0, 0, 0, 0); color: rgba(0, 0, 0, 0); font-family: monospace; font-size: 0px; text-align: start; white-space: nowrap;&quot;&gt;%3CmxGraphModel%3E%3Croot%3E%3CmxCell%20id%3D%220%22%2F%3E%3CmxCell%20id%3D%221%22%20parent%3D%220%22%2F%3E%3CmxCell%20id%3D%222%22%20value%3D%22Enter%20VA%20code%22%20style%3D%22rounded%3D1%3BwhiteSpace%3Dwrap%3Bhtml%3D1%3BfillColor%3D%23fff2cc%3BstrokeColor%3D%23d6b656%3B%22%20vertex%3D%221%22%20parent%3D%221%22%3E%3CmxGeometry%20x%3D%221810%22%20y%3D%22650%22%20width%3D%22110%22%20height%3D%2250%22%20as%3D%22geometry%22%2F%3E%3C%2FmxCell%3E%3C%2Froot%3E%3C%2FmxGraphModel%3E&lt;/span&gt;ment" style="rounded=1;whiteSpace=wrap;html=1;fillColor=#fff2cc;strokeColor=#d6b656;" vertex="1" parent="1">
          <mxGeometry x="1810" y="920" width="110" height="50" as="geometry" />
        </mxCell>
        <mxCell id="KGw5YceljunHFCwn1Aad-184" style="edgeStyle=orthogonalEdgeStyle;rounded=0;orthogonalLoop=1;jettySize=auto;html=1;exitX=0.5;exitY=1;exitDx=0;exitDy=0;entryX=0.805;entryY=0.737;entryDx=0;entryDy=0;entryPerimeter=0;" edge="1" parent="1" source="KGw5YceljunHFCwn1Aad-137" target="KGw5YceljunHFCwn1Aad-148">
          <mxGeometry relative="1" as="geometry" />
        </mxCell>
        <mxCell id="KGw5YceljunHFCwn1Aad-190" style="edgeStyle=orthogonalEdgeStyle;rounded=0;orthogonalLoop=1;jettySize=auto;html=1;" edge="1" parent="1" source="KGw5YceljunHFCwn1Aad-185" target="KGw5YceljunHFCwn1Aad-189">
          <mxGeometry relative="1" as="geometry" />
        </mxCell>
        <mxCell id="KGw5YceljunHFCwn1Aad-185" value="" style="line;strokeWidth=2;html=1;" vertex="1" parent="1">
          <mxGeometry x="1635" y="1040" width="280" height="10" as="geometry" />
        </mxCell>
        <mxCell id="KGw5YceljunHFCwn1Aad-187" style="edgeStyle=orthogonalEdgeStyle;rounded=0;orthogonalLoop=1;jettySize=auto;html=1;exitX=0.5;exitY=1;exitDx=0;exitDy=0;entryX=0.821;entryY=0.737;entryDx=0;entryDy=0;entryPerimeter=0;" edge="1" parent="1" source="KGw5YceljunHFCwn1Aad-177" target="KGw5YceljunHFCwn1Aad-185">
          <mxGeometry relative="1" as="geometry" />
        </mxCell>
        <mxCell id="KGw5YceljunHFCwn1Aad-188" style="edgeStyle=orthogonalEdgeStyle;rounded=0;orthogonalLoop=1;jettySize=auto;html=1;exitX=0.5;exitY=1;exitDx=0;exitDy=0;entryX=0.179;entryY=0.421;entryDx=0;entryDy=0;entryPerimeter=0;" edge="1" parent="1" source="KGw5YceljunHFCwn1Aad-171" target="KGw5YceljunHFCwn1Aad-185">
          <mxGeometry relative="1" as="geometry" />
        </mxCell>
        <mxCell id="KGw5YceljunHFCwn1Aad-192" style="edgeStyle=orthogonalEdgeStyle;rounded=0;orthogonalLoop=1;jettySize=auto;html=1;exitX=0.5;exitY=1;exitDx=0;exitDy=0;entryX=0.5;entryY=0;entryDx=0;entryDy=0;" edge="1" parent="1" source="KGw5YceljunHFCwn1Aad-189" target="KGw5YceljunHFCwn1Aad-191">
          <mxGeometry relative="1" as="geometry" />
        </mxCell>
        <mxCell id="KGw5YceljunHFCwn1Aad-189" value="Process Order" style="rounded=1;whiteSpace=wrap;html=1;fillColor=#fff2cc;strokeColor=#d6b656;" vertex="1" parent="1">
          <mxGeometry x="1720" y="1110" width="110" height="50" as="geometry" />
        </mxCell>
        <mxCell id="KGw5YceljunHFCwn1Aad-194" style="edgeStyle=orthogonalEdgeStyle;rounded=0;orthogonalLoop=1;jettySize=auto;html=1;exitX=0.5;exitY=1;exitDx=0;exitDy=0;entryX=0.5;entryY=0;entryDx=0;entryDy=0;" edge="1" parent="1" source="KGw5YceljunHFCwn1Aad-191" target="KGw5YceljunHFCwn1Aad-193">
          <mxGeometry relative="1" as="geometry" />
        </mxCell>
        <mxCell id="KGw5YceljunHFCwn1Aad-191" value="Add to Order History" style="rounded=1;whiteSpace=wrap;html=1;fillColor=#fff2cc;strokeColor=#d6b656;" vertex="1" parent="1">
          <mxGeometry x="1720" y="1210" width="110" height="50" as="geometry" />
        </mxCell>
        <mxCell id="KGw5YceljunHFCwn1Aad-193" value="Track Delivery Status" style="rounded=1;whiteSpace=wrap;html=1;fillColor=#fff2cc;strokeColor=#d6b656;" vertex="1" parent="1">
          <mxGeometry x="1720" y="1310" width="110" height="50" as="geometry" />
        </mxCell>
        <mxCell id="KGw5YceljunHFCwn1Aad-195" value="Eco-Reward Program" style="shape=umlFrame;whiteSpace=wrap;html=1;pointerEvents=0;width=130;height=30;fillColor=#647687;strokeColor=#314354;fontColor=#ffffff;" vertex="1" parent="1">
          <mxGeometry x="1950" y="130" width="410" height="1470" as="geometry" />
        </mxCell>
        <mxCell id="KGw5YceljunHFCwn1Aad-210" style="edgeStyle=orthogonalEdgeStyle;rounded=0;orthogonalLoop=1;jettySize=auto;html=1;exitX=0.5;exitY=1;exitDx=0;exitDy=0;entryX=0.5;entryY=0;entryDx=0;entryDy=0;" edge="1" parent="1" source="KGw5YceljunHFCwn1Aad-196" target="KGw5YceljunHFCwn1Aad-198">
          <mxGeometry relative="1" as="geometry" />
        </mxCell>
        <mxCell id="KGw5YceljunHFCwn1Aad-196" value="Collect Eco-Reward Points" style="rounded=1;whiteSpace=wrap;html=1;fillColor=#647687;strokeColor=#314354;fontColor=#ffffff;" vertex="1" parent="1">
          <mxGeometry x="2070" y="250" width="110" height="50" as="geometry" />
        </mxCell>
        <mxCell id="KGw5YceljunHFCwn1Aad-211" style="edgeStyle=orthogonalEdgeStyle;rounded=0;orthogonalLoop=1;jettySize=auto;html=1;exitX=0.5;exitY=1;exitDx=0;exitDy=0;entryX=0.5;entryY=0;entryDx=0;entryDy=0;" edge="1" parent="1" source="KGw5YceljunHFCwn1Aad-198" target="KGw5YceljunHFCwn1Aad-199">
          <mxGeometry relative="1" as="geometry" />
        </mxCell>
        <mxCell id="KGw5YceljunHFCwn1Aad-198" value="Check Earned Points&lt;span style=&quot;caret-color: rgba(0, 0, 0, 0); color: rgba(0, 0, 0, 0); font-family: monospace; font-size: 0px; text-align: start; white-space: nowrap;&quot;&gt;%3CmxGraphModel%3E%3Croot%3E%3CmxCell%20id%3D%220%22%2F%3E%3CmxCell%20id%3D%221%22%20parent%3D%220%22%2F%3E%3CmxCell%20id%3D%222%22%20value%3D%22Collect%20Eco-Reward%20Points%22%20style%3D%22rounded%3D1%3BwhiteSpace%3Dwrap%3Bhtml%3D1%3BfillColor%3D%23647687%3BstrokeColor%3D%23314354%3BfontColor%3D%23ffffff%3B%22%20vertex%3D%221%22%20parent%3D%221%22%3E%3CmxGeometry%20x%3D%222070%22%20y%3D%22240%22%20width%3D%22110%22%20height%3D%2250%22%20as%3D%22geometry%22%2F%3E%3C%2FmxCell%3E%3C%2Froot%3E%3C%2FmxGraphModel%3E&lt;/span&gt;&lt;span style=&quot;caret-color: rgba(0, 0, 0, 0); color: rgba(0, 0, 0, 0); font-family: monospace; font-size: 0px; text-align: start; white-space: nowrap;&quot;&gt;%3CmxGraphModel%3E%3Croot%3E%3CmxCell%20id%3D%220%22%2F%3E%3CmxCell%20id%3D%221%22%20parent%3D%220%22%2F%3E%3CmxCell%20id%3D%222%22%20value%3D%22Collect%20Eco-Reward%20Points%22%20style%3D%22rounded%3D1%3BwhiteSpace%3Dwrap%3Bhtml%3D1%3BfillColor%3D%23647687%3BstrokeColor%3D%23314354%3BfontColor%3D%23ffffff%3B%22%20vertex%3D%221%22%20parent%3D%221%22%3E%3CmxGeometry%20x%3D%222070%22%20y%3D%22240%22%20width%3D%22110%22%20height%3D%2250%22%20as%3D%22geometry%22%2F%3E%3C%2FmxCell%3E%3C%2Froot%3E%3C%2FmxGraphModel%3E&lt;/span&gt;" style="rounded=1;whiteSpace=wrap;html=1;fillColor=#647687;strokeColor=#314354;fontColor=#ffffff;" vertex="1" parent="1">
          <mxGeometry x="2070" y="340" width="110" height="50" as="geometry" />
        </mxCell>
        <mxCell id="KGw5YceljunHFCwn1Aad-212" style="edgeStyle=orthogonalEdgeStyle;rounded=0;orthogonalLoop=1;jettySize=auto;html=1;exitX=0.5;exitY=1;exitDx=0;exitDy=0;entryX=0.5;entryY=0;entryDx=0;entryDy=0;" edge="1" parent="1" source="KGw5YceljunHFCwn1Aad-199" target="KGw5YceljunHFCwn1Aad-200">
          <mxGeometry relative="1" as="geometry" />
        </mxCell>
        <mxCell id="KGw5YceljunHFCwn1Aad-199" value="If Points Enough" style="rounded=1;whiteSpace=wrap;html=1;fillColor=#647687;strokeColor=#314354;fontColor=#ffffff;" vertex="1" parent="1">
          <mxGeometry x="2070" y="440" width="110" height="50" as="geometry" />
        </mxCell>
        <mxCell id="KGw5YceljunHFCwn1Aad-203" style="edgeStyle=orthogonalEdgeStyle;rounded=0;orthogonalLoop=1;jettySize=auto;html=1;exitX=0.5;exitY=1;exitDx=0;exitDy=0;entryX=0.5;entryY=0;entryDx=0;entryDy=0;" edge="1" parent="1" source="KGw5YceljunHFCwn1Aad-200" target="KGw5YceljunHFCwn1Aad-201">
          <mxGeometry relative="1" as="geometry" />
        </mxCell>
        <mxCell id="KGw5YceljunHFCwn1Aad-206" value="Yes" style="edgeLabel;html=1;align=center;verticalAlign=middle;resizable=0;points=[];" vertex="1" connectable="0" parent="KGw5YceljunHFCwn1Aad-203">
          <mxGeometry x="-0.3263" y="1" relative="1" as="geometry">
            <mxPoint as="offset" />
          </mxGeometry>
        </mxCell>
        <mxCell id="KGw5YceljunHFCwn1Aad-207" style="edgeStyle=orthogonalEdgeStyle;rounded=0;orthogonalLoop=1;jettySize=auto;html=1;exitX=1;exitY=0.5;exitDx=0;exitDy=0;entryX=0;entryY=0.5;entryDx=0;entryDy=0;" edge="1" parent="1" source="KGw5YceljunHFCwn1Aad-200" target="KGw5YceljunHFCwn1Aad-202">
          <mxGeometry relative="1" as="geometry" />
        </mxCell>
        <mxCell id="KGw5YceljunHFCwn1Aad-200" value="" style="rhombus;whiteSpace=wrap;html=1;fillColor=#647687;fontColor=#ffffff;strokeColor=#314354;" vertex="1" parent="1">
          <mxGeometry x="2085" y="540" width="80" height="80" as="geometry" />
        </mxCell>
        <mxCell id="KGw5YceljunHFCwn1Aad-213" style="edgeStyle=orthogonalEdgeStyle;rounded=0;orthogonalLoop=1;jettySize=auto;html=1;exitX=0.5;exitY=1;exitDx=0;exitDy=0;entryX=0.5;entryY=0;entryDx=0;entryDy=0;" edge="1" parent="1" source="KGw5YceljunHFCwn1Aad-201" target="KGw5YceljunHFCwn1Aad-209">
          <mxGeometry relative="1" as="geometry" />
        </mxCell>
        <mxCell id="KGw5YceljunHFCwn1Aad-201" value="Redeem Points" style="rounded=1;whiteSpace=wrap;html=1;fillColor=#647687;strokeColor=#314354;fontColor=#ffffff;" vertex="1" parent="1">
          <mxGeometry x="2070" y="670" width="110" height="50" as="geometry" />
        </mxCell>
        <mxCell id="KGw5YceljunHFCwn1Aad-202" value="Notify Insufficient Points" style="rounded=1;whiteSpace=wrap;html=1;fillColor=#647687;strokeColor=#314354;fontColor=#ffffff;" vertex="1" parent="1">
          <mxGeometry x="2230" y="555" width="110" height="50" as="geometry" />
        </mxCell>
        <mxCell id="KGw5YceljunHFCwn1Aad-208" value="No" style="text;html=1;align=center;verticalAlign=middle;whiteSpace=wrap;rounded=0;" vertex="1" parent="1">
          <mxGeometry x="2165" y="555" width="60" height="30" as="geometry" />
        </mxCell>
        <mxCell id="KGw5YceljunHFCwn1Aad-209" value="Confirm Reward Discount" style="rounded=1;whiteSpace=wrap;html=1;fillColor=#647687;strokeColor=#314354;fontColor=#ffffff;" vertex="1" parent="1">
          <mxGeometry x="2070" y="770" width="110" height="50" as="geometry" />
        </mxCell>
        <mxCell id="KGw5YceljunHFCwn1Aad-215" value="Schedule Maintenance" style="shape=umlFrame;whiteSpace=wrap;html=1;pointerEvents=0;width=130;height=30;fillColor=#b0e3e6;strokeColor=#0e8088;" vertex="1" parent="1">
          <mxGeometry x="2360" y="130" width="410" height="1470" as="geometry" />
        </mxCell>
        <mxCell id="KGw5YceljunHFCwn1Aad-230" style="edgeStyle=orthogonalEdgeStyle;rounded=0;orthogonalLoop=1;jettySize=auto;html=1;exitX=0.5;exitY=1;exitDx=0;exitDy=0;entryX=0.5;entryY=0;entryDx=0;entryDy=0;" edge="1" parent="1" source="KGw5YceljunHFCwn1Aad-216" target="KGw5YceljunHFCwn1Aad-217">
          <mxGeometry relative="1" as="geometry" />
        </mxCell>
        <mxCell id="KGw5YceljunHFCwn1Aad-216" value="Select Maintanance Type" style="rounded=1;whiteSpace=wrap;html=1;fillColor=#b0e3e6;strokeColor=#0e8088;" vertex="1" parent="1">
          <mxGeometry x="2470" y="250" width="110" height="50" as="geometry" />
        </mxCell>
        <mxCell id="KGw5YceljunHFCwn1Aad-229" style="edgeStyle=orthogonalEdgeStyle;rounded=0;orthogonalLoop=1;jettySize=auto;html=1;exitX=0.5;exitY=1;exitDx=0;exitDy=0;entryX=0.5;entryY=0;entryDx=0;entryDy=0;" edge="1" parent="1" source="KGw5YceljunHFCwn1Aad-217" target="KGw5YceljunHFCwn1Aad-218">
          <mxGeometry relative="1" as="geometry" />
        </mxCell>
        <mxCell id="KGw5YceljunHFCwn1Aad-217" value="Select Date and Time" style="rounded=1;whiteSpace=wrap;html=1;fillColor=#b0e3e6;strokeColor=#0e8088;" vertex="1" parent="1">
          <mxGeometry x="2470" y="350" width="110" height="50" as="geometry" />
        </mxCell>
        <mxCell id="KGw5YceljunHFCwn1Aad-228" style="edgeStyle=orthogonalEdgeStyle;rounded=0;orthogonalLoop=1;jettySize=auto;html=1;exitX=0.5;exitY=1;exitDx=0;exitDy=0;entryX=0.5;entryY=0;entryDx=0;entryDy=0;" edge="1" parent="1" source="KGw5YceljunHFCwn1Aad-218" target="KGw5YceljunHFCwn1Aad-222">
          <mxGeometry relative="1" as="geometry" />
        </mxCell>
        <mxCell id="KGw5YceljunHFCwn1Aad-218" value="Verify Availability&amp;nbsp;&lt;div&gt;of Time&lt;/div&gt;" style="rounded=1;whiteSpace=wrap;html=1;fillColor=#b0e3e6;strokeColor=#0e8088;" vertex="1" parent="1">
          <mxGeometry x="2470" y="440" width="110" height="50" as="geometry" />
        </mxCell>
        <mxCell id="KGw5YceljunHFCwn1Aad-220" value="Maintanance Schedule" style="rounded=1;whiteSpace=wrap;html=1;fillColor=#b0e3e6;strokeColor=#0e8088;" vertex="1" parent="1">
          <mxGeometry x="2470" y="680" width="110" height="50" as="geometry" />
        </mxCell>
        <mxCell id="KGw5YceljunHFCwn1Aad-221" value="Notify Time Not Available" style="rounded=1;whiteSpace=wrap;html=1;fillColor=#b0e3e6;strokeColor=#0e8088;" vertex="1" parent="1">
          <mxGeometry x="2630" y="550" width="110" height="50" as="geometry" />
        </mxCell>
        <mxCell id="KGw5YceljunHFCwn1Aad-223" style="edgeStyle=orthogonalEdgeStyle;rounded=0;orthogonalLoop=1;jettySize=auto;html=1;exitX=0.5;exitY=1;exitDx=0;exitDy=0;entryX=0.5;entryY=0;entryDx=0;entryDy=0;" edge="1" parent="1" source="KGw5YceljunHFCwn1Aad-222" target="KGw5YceljunHFCwn1Aad-220">
          <mxGeometry relative="1" as="geometry" />
        </mxCell>
        <mxCell id="KGw5YceljunHFCwn1Aad-224" value="Yes" style="edgeLabel;html=1;align=center;verticalAlign=middle;resizable=0;points=[];" vertex="1" connectable="0" parent="KGw5YceljunHFCwn1Aad-223">
          <mxGeometry x="-0.0364" y="1" relative="1" as="geometry">
            <mxPoint as="offset" />
          </mxGeometry>
        </mxCell>
        <mxCell id="KGw5YceljunHFCwn1Aad-225" style="edgeStyle=orthogonalEdgeStyle;rounded=0;orthogonalLoop=1;jettySize=auto;html=1;exitX=1;exitY=0.5;exitDx=0;exitDy=0;entryX=0;entryY=0.5;entryDx=0;entryDy=0;" edge="1" parent="1" source="KGw5YceljunHFCwn1Aad-222" target="KGw5YceljunHFCwn1Aad-221">
          <mxGeometry relative="1" as="geometry" />
        </mxCell>
        <mxCell id="KGw5YceljunHFCwn1Aad-222" value="" style="rhombus;whiteSpace=wrap;html=1;fillColor=#b0e3e6;strokeColor=#0e8088;" vertex="1" parent="1">
          <mxGeometry x="2485" y="535" width="80" height="80" as="geometry" />
        </mxCell>
        <mxCell id="KGw5YceljunHFCwn1Aad-227" value="No" style="text;html=1;align=center;verticalAlign=middle;whiteSpace=wrap;rounded=0;" vertex="1" parent="1">
          <mxGeometry x="2560" y="550" width="60" height="30" as="geometry" />
        </mxCell>
        <mxCell id="KGw5YceljunHFCwn1Aad-233" style="edgeStyle=orthogonalEdgeStyle;rounded=0;orthogonalLoop=1;jettySize=auto;html=1;exitX=0.75;exitY=0.5;exitDx=0;exitDy=0;exitPerimeter=0;entryX=0;entryY=0.5;entryDx=0;entryDy=0;" edge="1" parent="1" source="KGw5YceljunHFCwn1Aad-231" target="KGw5YceljunHFCwn1Aad-216">
          <mxGeometry relative="1" as="geometry">
            <Array as="points">
              <mxPoint x="2185" y="920" />
              <mxPoint x="2380" y="920" />
              <mxPoint x="2380" y="275" />
            </Array>
          </mxGeometry>
        </mxCell>
        <mxCell id="KGw5YceljunHFCwn1Aad-231" value="" style="line;strokeWidth=2;html=1;" vertex="1" parent="1">
          <mxGeometry x="2005" y="890" width="240" height="10" as="geometry" />
        </mxCell>
        <mxCell id="KGw5YceljunHFCwn1Aad-232" style="edgeStyle=orthogonalEdgeStyle;rounded=0;orthogonalLoop=1;jettySize=auto;html=1;exitX=0.5;exitY=1;exitDx=0;exitDy=0;entryX=0.5;entryY=0.158;entryDx=0;entryDy=0;entryPerimeter=0;" edge="1" parent="1" source="KGw5YceljunHFCwn1Aad-209" target="KGw5YceljunHFCwn1Aad-231">
          <mxGeometry relative="1" as="geometry" />
        </mxCell>
        <mxCell id="KGw5YceljunHFCwn1Aad-236" style="edgeStyle=orthogonalEdgeStyle;rounded=0;orthogonalLoop=1;jettySize=auto;html=1;exitX=0.75;exitY=0.5;exitDx=0;exitDy=0;exitPerimeter=0;entryX=0;entryY=0.5;entryDx=0;entryDy=0;" edge="1" parent="1" source="KGw5YceljunHFCwn1Aad-234" target="KGw5YceljunHFCwn1Aad-196">
          <mxGeometry relative="1" as="geometry">
            <Array as="points">
              <mxPoint x="1840" y="1430" />
              <mxPoint x="1970" y="1430" />
              <mxPoint x="1970" y="275" />
            </Array>
          </mxGeometry>
        </mxCell>
        <mxCell id="KGw5YceljunHFCwn1Aad-234" value="" style="line;strokeWidth=2;html=1;" vertex="1" parent="1">
          <mxGeometry x="1630" y="1410" width="280" height="10" as="geometry" />
        </mxCell>
        <mxCell id="KGw5YceljunHFCwn1Aad-235" style="edgeStyle=orthogonalEdgeStyle;rounded=0;orthogonalLoop=1;jettySize=auto;html=1;exitX=0.5;exitY=1;exitDx=0;exitDy=0;entryX=0.521;entryY=0.6;entryDx=0;entryDy=0;entryPerimeter=0;" edge="1" parent="1" source="KGw5YceljunHFCwn1Aad-193" target="KGw5YceljunHFCwn1Aad-234">
          <mxGeometry relative="1" as="geometry" />
        </mxCell>
        <mxCell id="KGw5YceljunHFCwn1Aad-241" style="edgeStyle=orthogonalEdgeStyle;rounded=0;orthogonalLoop=1;jettySize=auto;html=1;exitX=0.75;exitY=0.5;exitDx=0;exitDy=0;exitPerimeter=0;entryX=0;entryY=0.5;entryDx=0;entryDy=0;" edge="1" parent="1" source="KGw5YceljunHFCwn1Aad-237" target="KGw5YceljunHFCwn1Aad-240">
          <mxGeometry relative="1" as="geometry">
            <Array as="points">
              <mxPoint x="2585" y="790" />
              <mxPoint x="2783" y="790" />
              <mxPoint x="2783" y="275" />
            </Array>
          </mxGeometry>
        </mxCell>
        <mxCell id="KGw5YceljunHFCwn1Aad-237" value="" style="line;strokeWidth=2;html=1;" vertex="1" parent="1">
          <mxGeometry x="2405" y="770" width="240" height="10" as="geometry" />
        </mxCell>
        <mxCell id="KGw5YceljunHFCwn1Aad-238" style="edgeStyle=orthogonalEdgeStyle;rounded=0;orthogonalLoop=1;jettySize=auto;html=1;exitX=0.5;exitY=1;exitDx=0;exitDy=0;entryX=0.498;entryY=0.35;entryDx=0;entryDy=0;entryPerimeter=0;" edge="1" parent="1" source="KGw5YceljunHFCwn1Aad-220" target="KGw5YceljunHFCwn1Aad-237">
          <mxGeometry relative="1" as="geometry" />
        </mxCell>
        <mxCell id="KGw5YceljunHFCwn1Aad-239" value="Sell Used Battery" style="shape=umlFrame;whiteSpace=wrap;html=1;pointerEvents=0;width=130;height=30;fillColor=#fad7ac;strokeColor=#b46504;" vertex="1" parent="1">
          <mxGeometry x="2770" y="130" width="410" height="1470" as="geometry" />
        </mxCell>
        <mxCell id="KGw5YceljunHFCwn1Aad-254" style="edgeStyle=orthogonalEdgeStyle;rounded=0;orthogonalLoop=1;jettySize=auto;html=1;exitX=0.5;exitY=1;exitDx=0;exitDy=0;entryX=0.5;entryY=0;entryDx=0;entryDy=0;" edge="1" parent="1" source="KGw5YceljunHFCwn1Aad-240" target="KGw5YceljunHFCwn1Aad-242">
          <mxGeometry relative="1" as="geometry" />
        </mxCell>
        <mxCell id="KGw5YceljunHFCwn1Aad-240" value="Select Used Battery to Provider" style="rounded=1;whiteSpace=wrap;html=1;fillColor=#fad7ac;strokeColor=#b46504;" vertex="1" parent="1">
          <mxGeometry x="2880" y="250" width="110" height="50" as="geometry" />
        </mxCell>
        <mxCell id="KGw5YceljunHFCwn1Aad-255" style="edgeStyle=orthogonalEdgeStyle;rounded=0;orthogonalLoop=1;jettySize=auto;html=1;exitX=0.5;exitY=1;exitDx=0;exitDy=0;entryX=0.5;entryY=0;entryDx=0;entryDy=0;" edge="1" parent="1" source="KGw5YceljunHFCwn1Aad-242" target="KGw5YceljunHFCwn1Aad-243">
          <mxGeometry relative="1" as="geometry" />
        </mxCell>
        <mxCell id="KGw5YceljunHFCwn1Aad-242" value="Send Battery to Provider" style="rounded=1;whiteSpace=wrap;html=1;fillColor=#fad7ac;strokeColor=#b46504;" vertex="1" parent="1">
          <mxGeometry x="2880" y="340" width="110" height="50" as="geometry" />
        </mxCell>
        <mxCell id="KGw5YceljunHFCwn1Aad-256" style="edgeStyle=orthogonalEdgeStyle;rounded=0;orthogonalLoop=1;jettySize=auto;html=1;exitX=0.5;exitY=1;exitDx=0;exitDy=0;entryX=0.5;entryY=0;entryDx=0;entryDy=0;" edge="1" parent="1" source="KGw5YceljunHFCwn1Aad-243" target="KGw5YceljunHFCwn1Aad-244">
          <mxGeometry relative="1" as="geometry" />
        </mxCell>
        <mxCell id="KGw5YceljunHFCwn1Aad-243" value="Evaluate Battery Condition" style="rounded=1;whiteSpace=wrap;html=1;fillColor=#fad7ac;strokeColor=#b46504;" vertex="1" parent="1">
          <mxGeometry x="2880" y="430" width="110" height="50" as="geometry" />
        </mxCell>
        <mxCell id="KGw5YceljunHFCwn1Aad-248" style="edgeStyle=orthogonalEdgeStyle;rounded=0;orthogonalLoop=1;jettySize=auto;html=1;exitX=1;exitY=0.5;exitDx=0;exitDy=0;entryX=0;entryY=0.5;entryDx=0;entryDy=0;" edge="1" parent="1" source="KGw5YceljunHFCwn1Aad-244" target="KGw5YceljunHFCwn1Aad-246">
          <mxGeometry relative="1" as="geometry" />
        </mxCell>
        <mxCell id="KGw5YceljunHFCwn1Aad-249" style="edgeStyle=orthogonalEdgeStyle;rounded=0;orthogonalLoop=1;jettySize=auto;html=1;exitX=0.5;exitY=1;exitDx=0;exitDy=0;entryX=0.5;entryY=0;entryDx=0;entryDy=0;" edge="1" parent="1" source="KGw5YceljunHFCwn1Aad-244" target="KGw5YceljunHFCwn1Aad-245">
          <mxGeometry relative="1" as="geometry" />
        </mxCell>
        <mxCell id="KGw5YceljunHFCwn1Aad-250" value="Good" style="edgeLabel;html=1;align=center;verticalAlign=middle;resizable=0;points=[];" vertex="1" connectable="0" parent="KGw5YceljunHFCwn1Aad-249">
          <mxGeometry x="-0.01" y="-3" relative="1" as="geometry">
            <mxPoint as="offset" />
          </mxGeometry>
        </mxCell>
        <mxCell id="KGw5YceljunHFCwn1Aad-244" value="" style="rhombus;whiteSpace=wrap;html=1;fillColor=#fad7ac;strokeColor=#b46504;" vertex="1" parent="1">
          <mxGeometry x="2895" y="520" width="80" height="80" as="geometry" />
        </mxCell>
        <mxCell id="KGw5YceljunHFCwn1Aad-262" style="edgeStyle=orthogonalEdgeStyle;rounded=0;orthogonalLoop=1;jettySize=auto;html=1;exitX=0.5;exitY=1;exitDx=0;exitDy=0;entryX=0.5;entryY=0;entryDx=0;entryDy=0;" edge="1" parent="1" source="KGw5YceljunHFCwn1Aad-245" target="KGw5YceljunHFCwn1Aad-259">
          <mxGeometry relative="1" as="geometry" />
        </mxCell>
        <mxCell id="KGw5YceljunHFCwn1Aad-245" value="Set Price for Battery" style="rounded=1;whiteSpace=wrap;html=1;fillColor=#fad7ac;strokeColor=#b46504;" vertex="1" parent="1">
          <mxGeometry x="2880" y="660" width="110" height="50" as="geometry" />
        </mxCell>
        <mxCell id="KGw5YceljunHFCwn1Aad-257" style="edgeStyle=orthogonalEdgeStyle;rounded=0;orthogonalLoop=1;jettySize=auto;html=1;exitX=0.5;exitY=1;exitDx=0;exitDy=0;entryX=0.5;entryY=0;entryDx=0;entryDy=0;" edge="1" parent="1" source="KGw5YceljunHFCwn1Aad-246" target="KGw5YceljunHFCwn1Aad-252">
          <mxGeometry relative="1" as="geometry" />
        </mxCell>
        <mxCell id="KGw5YceljunHFCwn1Aad-246" value="Evaluate Battery Condition" style="rounded=1;whiteSpace=wrap;html=1;fillColor=#fad7ac;strokeColor=#b46504;" vertex="1" parent="1">
          <mxGeometry x="3030" y="535" width="110" height="50" as="geometry" />
        </mxCell>
        <mxCell id="KGw5YceljunHFCwn1Aad-251" value="Bad" style="text;html=1;align=center;verticalAlign=middle;whiteSpace=wrap;rounded=0;" vertex="1" parent="1">
          <mxGeometry x="2970" y="530" width="60" height="30" as="geometry" />
        </mxCell>
        <mxCell id="KGw5YceljunHFCwn1Aad-252" value="Notify Battery Not Acceptable" style="rounded=1;whiteSpace=wrap;html=1;fillColor=#fad7ac;strokeColor=#b46504;" vertex="1" parent="1">
          <mxGeometry x="3030" y="625" width="110" height="50" as="geometry" />
        </mxCell>
        <mxCell id="KGw5YceljunHFCwn1Aad-263" style="edgeStyle=orthogonalEdgeStyle;rounded=0;orthogonalLoop=1;jettySize=auto;html=1;exitX=0.5;exitY=1;exitDx=0;exitDy=0;" edge="1" parent="1" source="KGw5YceljunHFCwn1Aad-259" target="KGw5YceljunHFCwn1Aad-260">
          <mxGeometry relative="1" as="geometry" />
        </mxCell>
        <mxCell id="KGw5YceljunHFCwn1Aad-259" value="Confirm Price Offer" style="rounded=1;whiteSpace=wrap;html=1;fillColor=#fad7ac;strokeColor=#b46504;" vertex="1" parent="1">
          <mxGeometry x="2880" y="760" width="110" height="50" as="geometry" />
        </mxCell>
        <mxCell id="KGw5YceljunHFCwn1Aad-264" style="edgeStyle=orthogonalEdgeStyle;rounded=0;orthogonalLoop=1;jettySize=auto;html=1;exitX=0.5;exitY=1;exitDx=0;exitDy=0;entryX=0.5;entryY=0;entryDx=0;entryDy=0;" edge="1" parent="1" source="KGw5YceljunHFCwn1Aad-260" target="KGw5YceljunHFCwn1Aad-261">
          <mxGeometry relative="1" as="geometry" />
        </mxCell>
        <mxCell id="KGw5YceljunHFCwn1Aad-260" value="Process Payment" style="rounded=1;whiteSpace=wrap;html=1;fillColor=#fad7ac;strokeColor=#b46504;" vertex="1" parent="1">
          <mxGeometry x="2880" y="860" width="110" height="50" as="geometry" />
        </mxCell>
        <mxCell id="KGw5YceljunHFCwn1Aad-297" style="edgeStyle=orthogonalEdgeStyle;rounded=0;orthogonalLoop=1;jettySize=auto;html=1;exitX=0.5;exitY=1;exitDx=0;exitDy=0;entryX=0;entryY=0.5;entryDx=0;entryDy=0;" edge="1" parent="1" source="KGw5YceljunHFCwn1Aad-261" target="KGw5YceljunHFCwn1Aad-266">
          <mxGeometry relative="1" as="geometry">
            <Array as="points">
              <mxPoint x="2935" y="1030" />
              <mxPoint x="3190" y="1030" />
              <mxPoint x="3190" y="275" />
            </Array>
          </mxGeometry>
        </mxCell>
        <mxCell id="KGw5YceljunHFCwn1Aad-261" value="Update Battery Status in Inventory" style="rounded=1;whiteSpace=wrap;html=1;fillColor=#fad7ac;strokeColor=#b46504;" vertex="1" parent="1">
          <mxGeometry x="2880" y="960" width="110" height="50" as="geometry" />
        </mxCell>
        <mxCell id="KGw5YceljunHFCwn1Aad-265" value="Manage Inventory" style="shape=umlFrame;whiteSpace=wrap;html=1;pointerEvents=0;width=130;height=30;fillColor=#d0cee2;strokeColor=#56517e;" vertex="1" parent="1">
          <mxGeometry x="3180" y="130" width="520" height="1470" as="geometry" />
        </mxCell>
        <mxCell id="KGw5YceljunHFCwn1Aad-278" style="edgeStyle=orthogonalEdgeStyle;rounded=0;orthogonalLoop=1;jettySize=auto;html=1;exitX=0.5;exitY=1;exitDx=0;exitDy=0;entryX=0.5;entryY=0;entryDx=0;entryDy=0;" edge="1" parent="1" source="KGw5YceljunHFCwn1Aad-266" target="KGw5YceljunHFCwn1Aad-270">
          <mxGeometry relative="1" as="geometry" />
        </mxCell>
        <mxCell id="KGw5YceljunHFCwn1Aad-266" value="Select Inventory Action&lt;span style=&quot;caret-color: rgba(0, 0, 0, 0); color: rgba(0, 0, 0, 0); font-family: monospace; font-size: 0px; text-align: start; white-space: nowrap;&quot;&gt;%3CmxGraphModel%3E%3Croot%3E%3CmxCell%20id%3D%220%22%2F%3E%3CmxCell%20id%3D%221%22%20parent%3D%220%22%2F%3E%3CmxCell%20id%3D%222%22%20value%3D%22Select%20Maintanance%20Type%22%20style%3D%22rounded%3D1%3BwhiteSpace%3Dwrap%3Bhtml%3D1%3BfillColor%3D%23fad7ac%3BstrokeColor%3D%23b46504%3B%22%20vertex%3D%221%22%20parent%3D%221%22%3E%3CmxGeometry%20x%3D%222880%22%20y%3D%22250%22%20width%3D%22110%22%20height%3D%2250%22%20as%3D%22geometry%22%2F%3E%3C%2FmxCell%3E%3C%2Froot%3E%3C%2FmxGraphModel%3E&lt;/span&gt;&lt;span style=&quot;caret-color: rgba(0, 0, 0, 0); color: rgba(0, 0, 0, 0); font-family: monospace; font-size: 0px; text-align: start; white-space: nowrap;&quot;&gt;%3CmxGraphModel%3E%3Croot%3E%3CmxCell%20id%3D%220%22%2F%3E%3CmxCell%20id%3D%221%22%20parent%3D%220%22%2F%3E%3CmxCell%20id%3D%222%22%20value%3D%22Select%20Maintanance%20Type%22%20style%3D%22rounded%3D1%3BwhiteSpace%3Dwrap%3Bhtml%3D1%3BfillColor%3D%23fad7ac%3BstrokeColor%3D%23b46504%3B%22%20vertex%3D%221%22%20parent%3D%221%22%3E%3CmxGeometry%20x%3D%222880%22%20y%3D%22250%22%20width%3D%22110%22%20height%3D%2250%22%20as%3D%22geometry%22%2F%3E%3C%2FmxCell%3E%3C%2Froot%3E%3C%2FmxGraphModel%3E&lt;/span&gt;" style="rounded=1;whiteSpace=wrap;html=1;fillColor=#d0cee2;strokeColor=#56517e;" vertex="1" parent="1">
          <mxGeometry x="3360" y="250" width="110" height="50" as="geometry" />
        </mxCell>
        <mxCell id="KGw5YceljunHFCwn1Aad-279" style="edgeStyle=orthogonalEdgeStyle;rounded=0;orthogonalLoop=1;jettySize=auto;html=1;exitX=0.5;exitY=1;exitDx=0;exitDy=0;entryX=0.5;entryY=0;entryDx=0;entryDy=0;" edge="1" parent="1" source="KGw5YceljunHFCwn1Aad-270" target="KGw5YceljunHFCwn1Aad-271">
          <mxGeometry relative="1" as="geometry" />
        </mxCell>
        <mxCell id="KGw5YceljunHFCwn1Aad-270" value="Check Battery Stock" style="rounded=1;whiteSpace=wrap;html=1;fillColor=#d0cee2;strokeColor=#56517e;" vertex="1" parent="1">
          <mxGeometry x="3360" y="340" width="110" height="50" as="geometry" />
        </mxCell>
        <mxCell id="KGw5YceljunHFCwn1Aad-280" style="edgeStyle=orthogonalEdgeStyle;rounded=0;orthogonalLoop=1;jettySize=auto;html=1;exitX=0.5;exitY=1;exitDx=0;exitDy=0;entryX=0.5;entryY=0;entryDx=0;entryDy=0;" edge="1" parent="1" source="KGw5YceljunHFCwn1Aad-271" target="KGw5YceljunHFCwn1Aad-272">
          <mxGeometry relative="1" as="geometry" />
        </mxCell>
        <mxCell id="KGw5YceljunHFCwn1Aad-271" value="Action on Inventory?" style="rounded=1;whiteSpace=wrap;html=1;fillColor=#d0cee2;strokeColor=#56517e;" vertex="1" parent="1">
          <mxGeometry x="3360" y="435" width="110" height="50" as="geometry" />
        </mxCell>
        <mxCell id="KGw5YceljunHFCwn1Aad-281" style="edgeStyle=orthogonalEdgeStyle;rounded=0;orthogonalLoop=1;jettySize=auto;html=1;exitX=0;exitY=0.5;exitDx=0;exitDy=0;entryX=1;entryY=0.5;entryDx=0;entryDy=0;" edge="1" parent="1" source="KGw5YceljunHFCwn1Aad-272" target="KGw5YceljunHFCwn1Aad-275">
          <mxGeometry relative="1" as="geometry" />
        </mxCell>
        <mxCell id="KGw5YceljunHFCwn1Aad-282" style="edgeStyle=orthogonalEdgeStyle;rounded=0;orthogonalLoop=1;jettySize=auto;html=1;exitX=1;exitY=0.5;exitDx=0;exitDy=0;entryX=0;entryY=0.5;entryDx=0;entryDy=0;" edge="1" parent="1" source="KGw5YceljunHFCwn1Aad-272" target="KGw5YceljunHFCwn1Aad-274">
          <mxGeometry relative="1" as="geometry" />
        </mxCell>
        <mxCell id="KGw5YceljunHFCwn1Aad-283" style="edgeStyle=orthogonalEdgeStyle;rounded=0;orthogonalLoop=1;jettySize=auto;html=1;exitX=0.5;exitY=1;exitDx=0;exitDy=0;entryX=0.5;entryY=0;entryDx=0;entryDy=0;" edge="1" parent="1" source="KGw5YceljunHFCwn1Aad-272" target="KGw5YceljunHFCwn1Aad-273">
          <mxGeometry relative="1" as="geometry" />
        </mxCell>
        <mxCell id="KGw5YceljunHFCwn1Aad-284" value="Yes" style="edgeLabel;html=1;align=center;verticalAlign=middle;resizable=0;points=[];" vertex="1" connectable="0" parent="KGw5YceljunHFCwn1Aad-283">
          <mxGeometry x="0.0138" relative="1" as="geometry">
            <mxPoint as="offset" />
          </mxGeometry>
        </mxCell>
        <mxCell id="KGw5YceljunHFCwn1Aad-272" value="" style="rhombus;whiteSpace=wrap;html=1;fillColor=#d0cee2;strokeColor=#56517e;" vertex="1" parent="1">
          <mxGeometry x="3375" y="535" width="80" height="80" as="geometry" />
        </mxCell>
        <mxCell id="KGw5YceljunHFCwn1Aad-273" value="Reduce Stock" style="rounded=1;whiteSpace=wrap;html=1;fillColor=#d0cee2;strokeColor=#56517e;" vertex="1" parent="1">
          <mxGeometry x="3360" y="670" width="110" height="50" as="geometry" />
        </mxCell>
        <mxCell id="KGw5YceljunHFCwn1Aad-274" value="Update Battery Status" style="rounded=1;whiteSpace=wrap;html=1;fillColor=#d0cee2;strokeColor=#56517e;" vertex="1" parent="1">
          <mxGeometry x="3500" y="550" width="110" height="50" as="geometry" />
        </mxCell>
        <mxCell id="KGw5YceljunHFCwn1Aad-275" value="Add New Stock" style="rounded=1;whiteSpace=wrap;html=1;fillColor=#d0cee2;strokeColor=#56517e;" vertex="1" parent="1">
          <mxGeometry x="3210" y="550" width="110" height="50" as="geometry" />
        </mxCell>
        <mxCell id="KGw5YceljunHFCwn1Aad-276" value="Confirm Inventory Update" style="rounded=1;whiteSpace=wrap;html=1;fillColor=#d0cee2;strokeColor=#56517e;" vertex="1" parent="1">
          <mxGeometry x="3210" y="760" width="260" height="50" as="geometry" />
        </mxCell>
        <mxCell id="KGw5YceljunHFCwn1Aad-277" value="Confirm Inventory Update" style="rounded=1;whiteSpace=wrap;html=1;fillColor=#d0cee2;strokeColor=#56517e;" vertex="1" parent="1">
          <mxGeometry x="3510" y="760" width="150" height="50" as="geometry" />
        </mxCell>
        <mxCell id="KGw5YceljunHFCwn1Aad-285" style="edgeStyle=orthogonalEdgeStyle;rounded=0;orthogonalLoop=1;jettySize=auto;html=1;exitX=0.5;exitY=1;exitDx=0;exitDy=0;entryX=0.215;entryY=0.003;entryDx=0;entryDy=0;entryPerimeter=0;" edge="1" parent="1" source="KGw5YceljunHFCwn1Aad-275" target="KGw5YceljunHFCwn1Aad-276">
          <mxGeometry relative="1" as="geometry" />
        </mxCell>
        <mxCell id="KGw5YceljunHFCwn1Aad-286" style="edgeStyle=orthogonalEdgeStyle;rounded=0;orthogonalLoop=1;jettySize=auto;html=1;exitX=0.5;exitY=1;exitDx=0;exitDy=0;entryX=0.787;entryY=0.047;entryDx=0;entryDy=0;entryPerimeter=0;" edge="1" parent="1" source="KGw5YceljunHFCwn1Aad-273" target="KGw5YceljunHFCwn1Aad-276">
          <mxGeometry relative="1" as="geometry" />
        </mxCell>
        <mxCell id="KGw5YceljunHFCwn1Aad-287" style="edgeStyle=orthogonalEdgeStyle;rounded=0;orthogonalLoop=1;jettySize=auto;html=1;exitX=0.5;exitY=1;exitDx=0;exitDy=0;entryX=0.298;entryY=0;entryDx=0;entryDy=0;entryPerimeter=0;" edge="1" parent="1" source="KGw5YceljunHFCwn1Aad-274" target="KGw5YceljunHFCwn1Aad-277">
          <mxGeometry relative="1" as="geometry" />
        </mxCell>
        <mxCell id="KGw5YceljunHFCwn1Aad-288" value="Yes" style="text;html=1;align=center;verticalAlign=middle;whiteSpace=wrap;rounded=0;" vertex="1" parent="1">
          <mxGeometry x="3320" y="545" width="60" height="30" as="geometry" />
        </mxCell>
        <mxCell id="KGw5YceljunHFCwn1Aad-290" value="Yes" style="text;html=1;align=center;verticalAlign=middle;whiteSpace=wrap;rounded=0;" vertex="1" parent="1">
          <mxGeometry x="3440" y="545" width="60" height="30" as="geometry" />
        </mxCell>
        <mxCell id="KGw5YceljunHFCwn1Aad-311" style="edgeStyle=orthogonalEdgeStyle;rounded=0;orthogonalLoop=1;jettySize=auto;html=1;exitX=0.75;exitY=0.5;exitDx=0;exitDy=0;exitPerimeter=0;entryX=0;entryY=0.5;entryDx=0;entryDy=0;" edge="1" parent="1" source="KGw5YceljunHFCwn1Aad-292" target="KGw5YceljunHFCwn1Aad-296">
          <mxGeometry relative="1" as="geometry">
            <Array as="points">
              <mxPoint x="3535" y="900" />
              <mxPoint x="3720" y="900" />
              <mxPoint x="3720" y="275" />
            </Array>
          </mxGeometry>
        </mxCell>
        <mxCell id="KGw5YceljunHFCwn1Aad-292" value="" style="line;strokeWidth=2;html=1;" vertex="1" parent="1">
          <mxGeometry x="3220" y="880" width="420" height="10" as="geometry" />
        </mxCell>
        <mxCell id="KGw5YceljunHFCwn1Aad-293" style="edgeStyle=orthogonalEdgeStyle;rounded=0;orthogonalLoop=1;jettySize=auto;html=1;exitX=0.5;exitY=1;exitDx=0;exitDy=0;entryX=0.287;entryY=0.385;entryDx=0;entryDy=0;entryPerimeter=0;" edge="1" parent="1" source="KGw5YceljunHFCwn1Aad-276" target="KGw5YceljunHFCwn1Aad-292">
          <mxGeometry relative="1" as="geometry" />
        </mxCell>
        <mxCell id="KGw5YceljunHFCwn1Aad-294" style="edgeStyle=orthogonalEdgeStyle;rounded=0;orthogonalLoop=1;jettySize=auto;html=1;exitX=0.5;exitY=1;exitDx=0;exitDy=0;entryX=0.871;entryY=0.385;entryDx=0;entryDy=0;entryPerimeter=0;" edge="1" parent="1" source="KGw5YceljunHFCwn1Aad-277" target="KGw5YceljunHFCwn1Aad-292">
          <mxGeometry relative="1" as="geometry" />
        </mxCell>
        <mxCell id="KGw5YceljunHFCwn1Aad-295" value="Purchase New Battery" style="shape=umlFrame;whiteSpace=wrap;html=1;pointerEvents=0;width=130;height=30;fillColor=#6d8764;strokeColor=#3A5431;fontColor=#ffffff;" vertex="1" parent="1">
          <mxGeometry x="3700" y="130" width="360" height="1470" as="geometry" />
        </mxCell>
        <mxCell id="KGw5YceljunHFCwn1Aad-303" style="edgeStyle=orthogonalEdgeStyle;rounded=0;orthogonalLoop=1;jettySize=auto;html=1;exitX=0.5;exitY=1;exitDx=0;exitDy=0;entryX=0.5;entryY=0;entryDx=0;entryDy=0;" edge="1" parent="1" source="KGw5YceljunHFCwn1Aad-296" target="KGw5YceljunHFCwn1Aad-301">
          <mxGeometry relative="1" as="geometry" />
        </mxCell>
        <mxCell id="KGw5YceljunHFCwn1Aad-296" value="Select Battery Type to Purchase" style="rounded=1;whiteSpace=wrap;html=1;fillColor=#6d8764;strokeColor=#3A5431;fontColor=#ffffff;" vertex="1" parent="1">
          <mxGeometry x="3825" y="250" width="110" height="50" as="geometry" />
        </mxCell>
        <mxCell id="KGw5YceljunHFCwn1Aad-298" value="Update Battery Status in Inventory" style="rounded=1;whiteSpace=wrap;html=1;fillColor=#6d8764;strokeColor=#3A5431;fontColor=#ffffff;" vertex="1" parent="1">
          <mxGeometry x="3825" y="700" width="110" height="50" as="geometry" />
        </mxCell>
        <mxCell id="KGw5YceljunHFCwn1Aad-307" style="edgeStyle=orthogonalEdgeStyle;rounded=0;orthogonalLoop=1;jettySize=auto;html=1;exitX=0.5;exitY=1;exitDx=0;exitDy=0;entryX=0.5;entryY=0;entryDx=0;entryDy=0;" edge="1" parent="1" source="KGw5YceljunHFCwn1Aad-299" target="KGw5YceljunHFCwn1Aad-298">
          <mxGeometry relative="1" as="geometry" />
        </mxCell>
        <mxCell id="KGw5YceljunHFCwn1Aad-299" value="Confirm Payment Success" style="rounded=1;whiteSpace=wrap;html=1;fillColor=#6d8764;strokeColor=#3A5431;fontColor=#ffffff;" vertex="1" parent="1">
          <mxGeometry x="3825" y="610" width="110" height="50" as="geometry" />
        </mxCell>
        <mxCell id="KGw5YceljunHFCwn1Aad-306" style="edgeStyle=orthogonalEdgeStyle;rounded=0;orthogonalLoop=1;jettySize=auto;html=1;exitX=0.5;exitY=1;exitDx=0;exitDy=0;entryX=0.5;entryY=0;entryDx=0;entryDy=0;" edge="1" parent="1" source="KGw5YceljunHFCwn1Aad-300" target="KGw5YceljunHFCwn1Aad-299">
          <mxGeometry relative="1" as="geometry" />
        </mxCell>
        <mxCell id="KGw5YceljunHFCwn1Aad-300" value="Process Payment" style="rounded=1;whiteSpace=wrap;html=1;fillColor=#6d8764;strokeColor=#3A5431;fontColor=#ffffff;" vertex="1" parent="1">
          <mxGeometry x="3825" y="520" width="110" height="50" as="geometry" />
        </mxCell>
        <mxCell id="KGw5YceljunHFCwn1Aad-304" style="edgeStyle=orthogonalEdgeStyle;rounded=0;orthogonalLoop=1;jettySize=auto;html=1;exitX=0.5;exitY=1;exitDx=0;exitDy=0;entryX=0.5;entryY=0;entryDx=0;entryDy=0;" edge="1" parent="1" source="KGw5YceljunHFCwn1Aad-301" target="KGw5YceljunHFCwn1Aad-302">
          <mxGeometry relative="1" as="geometry" />
        </mxCell>
        <mxCell id="KGw5YceljunHFCwn1Aad-301" value="Check Battery Price" style="rounded=1;whiteSpace=wrap;html=1;fillColor=#6d8764;strokeColor=#3A5431;fontColor=#ffffff;" vertex="1" parent="1">
          <mxGeometry x="3825" y="340" width="110" height="50" as="geometry" />
        </mxCell>
        <mxCell id="KGw5YceljunHFCwn1Aad-305" style="edgeStyle=orthogonalEdgeStyle;rounded=0;orthogonalLoop=1;jettySize=auto;html=1;exitX=0.5;exitY=1;exitDx=0;exitDy=0;entryX=0.5;entryY=0;entryDx=0;entryDy=0;" edge="1" parent="1" source="KGw5YceljunHFCwn1Aad-302" target="KGw5YceljunHFCwn1Aad-300">
          <mxGeometry relative="1" as="geometry" />
        </mxCell>
        <mxCell id="KGw5YceljunHFCwn1Aad-302" value="Confirm Battery Choice" style="rounded=1;whiteSpace=wrap;html=1;fillColor=#6d8764;strokeColor=#3A5431;fontColor=#ffffff;" vertex="1" parent="1">
          <mxGeometry x="3825" y="430" width="110" height="50" as="geometry" />
        </mxCell>
        <mxCell id="KGw5YceljunHFCwn1Aad-337" style="edgeStyle=orthogonalEdgeStyle;rounded=0;orthogonalLoop=1;jettySize=auto;html=1;exitX=0.75;exitY=0.5;exitDx=0;exitDy=0;exitPerimeter=0;entryX=0;entryY=0.5;entryDx=0;entryDy=0;" edge="1" parent="1" source="KGw5YceljunHFCwn1Aad-309" target="KGw5YceljunHFCwn1Aad-320">
          <mxGeometry relative="1" as="geometry">
            <Array as="points">
              <mxPoint x="3942" y="830" />
              <mxPoint x="4078" y="830" />
              <mxPoint x="4078" y="275" />
            </Array>
          </mxGeometry>
        </mxCell>
        <mxCell id="KGw5YceljunHFCwn1Aad-309" value="" style="line;strokeWidth=2;html=1;" vertex="1" parent="1">
          <mxGeometry x="3755" y="810" width="250" height="10" as="geometry" />
        </mxCell>
        <mxCell id="KGw5YceljunHFCwn1Aad-310" style="edgeStyle=orthogonalEdgeStyle;rounded=0;orthogonalLoop=1;jettySize=auto;html=1;exitX=0.5;exitY=1;exitDx=0;exitDy=0;entryX=0.499;entryY=0.474;entryDx=0;entryDy=0;entryPerimeter=0;" edge="1" parent="1" source="KGw5YceljunHFCwn1Aad-298" target="KGw5YceljunHFCwn1Aad-309">
          <mxGeometry relative="1" as="geometry" />
        </mxCell>
        <mxCell id="KGw5YceljunHFCwn1Aad-318" style="edgeStyle=orthogonalEdgeStyle;rounded=0;orthogonalLoop=1;jettySize=auto;html=1;exitX=0.25;exitY=0.5;exitDx=0;exitDy=0;exitPerimeter=0;entryX=0.616;entryY=0.842;entryDx=0;entryDy=0;entryPerimeter=0;endArrow=none;endFill=0;" edge="1" parent="1" source="KGw5YceljunHFCwn1Aad-309" target="KGw5YceljunHFCwn1Aad-292">
          <mxGeometry relative="1" as="geometry">
            <Array as="points">
              <mxPoint x="3818" y="910" />
              <mxPoint x="3480" y="910" />
              <mxPoint x="3480" y="888" />
            </Array>
          </mxGeometry>
        </mxCell>
        <mxCell id="KGw5YceljunHFCwn1Aad-319" value="Update Battery Tipe" style="shape=umlFrame;whiteSpace=wrap;html=1;pointerEvents=0;width=130;height=30;fillColor=#bac8d3;strokeColor=#23445d;" vertex="1" parent="1">
          <mxGeometry x="4060" y="130" width="360" height="1470" as="geometry" />
        </mxCell>
        <mxCell id="KGw5YceljunHFCwn1Aad-320" value="Select Battery to Update" style="rounded=1;whiteSpace=wrap;html=1;fillColor=#bac8d3;strokeColor=#23445d;" vertex="1" parent="1">
          <mxGeometry x="4150" y="250" width="110" height="50" as="geometry" />
        </mxCell>
        <mxCell id="KGw5YceljunHFCwn1Aad-336" style="edgeStyle=orthogonalEdgeStyle;rounded=0;orthogonalLoop=1;jettySize=auto;html=1;exitX=0.5;exitY=1;exitDx=0;exitDy=0;entryX=0.5;entryY=0;entryDx=0;entryDy=0;" edge="1" parent="1" source="KGw5YceljunHFCwn1Aad-324" target="KGw5YceljunHFCwn1Aad-325">
          <mxGeometry relative="1" as="geometry" />
        </mxCell>
        <mxCell id="KGw5YceljunHFCwn1Aad-324" value="Select New Battery Type&amp;nbsp;&lt;span style=&quot;caret-color: rgba(0, 0, 0, 0); color: rgba(0, 0, 0, 0); font-family: monospace; font-size: 0px; text-align: start; white-space: nowrap;&quot;&gt;%3CmxGraphModel%3E%3Croot%3E%3CmxCell%20id%3D%220%22%2F%3E%3CmxCell%20id%3D%221%22%20parent%3D%220%22%2F%3E%3CmxCell%20id%3D%222%22%20value%3D%22Select%20Battery%20Type%20to%20Purchase%22%20style%3D%22rounded%3D1%3BwhiteSpace%3Dwrap%3Bhtml%3D1%3BfillColor%3D%23bac8d3%3BstrokeColor%3D%2323445d%3B%22%20vertex%3D%221%22%20parent%3D%221%22%3E%3CmxGeometry%20x%3D%224185%22%20y%3D%22250%22%20width%3D%22110%22%20height%3D%2250%22%20as%3D%22geometry%22%2F%3E%3C%2FmxCell%3E%3C%2Froot%3E%3C%2FmxGraphModel%3E&lt;/span&gt;" style="rounded=1;whiteSpace=wrap;html=1;fillColor=#bac8d3;strokeColor=#23445d;" vertex="1" parent="1">
          <mxGeometry x="4150" y="340" width="110" height="50" as="geometry" />
        </mxCell>
        <mxCell id="KGw5YceljunHFCwn1Aad-333" style="edgeStyle=orthogonalEdgeStyle;rounded=0;orthogonalLoop=1;jettySize=auto;html=1;exitX=0.5;exitY=1;exitDx=0;exitDy=0;entryX=0.5;entryY=0;entryDx=0;entryDy=0;" edge="1" parent="1" source="KGw5YceljunHFCwn1Aad-325" target="KGw5YceljunHFCwn1Aad-326">
          <mxGeometry relative="1" as="geometry" />
        </mxCell>
        <mxCell id="KGw5YceljunHFCwn1Aad-325" value="Verify Availability of New Type" style="rounded=1;whiteSpace=wrap;html=1;fillColor=#bac8d3;strokeColor=#23445d;" vertex="1" parent="1">
          <mxGeometry x="4150" y="435" width="110" height="50" as="geometry" />
        </mxCell>
        <mxCell id="KGw5YceljunHFCwn1Aad-329" style="edgeStyle=orthogonalEdgeStyle;rounded=0;orthogonalLoop=1;jettySize=auto;html=1;exitX=1;exitY=0.5;exitDx=0;exitDy=0;entryX=0;entryY=0.5;entryDx=0;entryDy=0;" edge="1" parent="1" source="KGw5YceljunHFCwn1Aad-326" target="KGw5YceljunHFCwn1Aad-327">
          <mxGeometry relative="1" as="geometry" />
        </mxCell>
        <mxCell id="KGw5YceljunHFCwn1Aad-331" style="edgeStyle=orthogonalEdgeStyle;rounded=0;orthogonalLoop=1;jettySize=auto;html=1;exitX=0.5;exitY=1;exitDx=0;exitDy=0;entryX=0.5;entryY=0;entryDx=0;entryDy=0;" edge="1" parent="1" source="KGw5YceljunHFCwn1Aad-326" target="KGw5YceljunHFCwn1Aad-328">
          <mxGeometry relative="1" as="geometry" />
        </mxCell>
        <mxCell id="KGw5YceljunHFCwn1Aad-332" value="Yes" style="edgeLabel;html=1;align=center;verticalAlign=middle;resizable=0;points=[];" vertex="1" connectable="0" parent="KGw5YceljunHFCwn1Aad-331">
          <mxGeometry x="-0.2889" relative="1" as="geometry">
            <mxPoint as="offset" />
          </mxGeometry>
        </mxCell>
        <mxCell id="KGw5YceljunHFCwn1Aad-326" value="" style="rhombus;whiteSpace=wrap;html=1;fillColor=#bac8d3;strokeColor=#23445d;" vertex="1" parent="1">
          <mxGeometry x="4165" y="525" width="80" height="80" as="geometry" />
        </mxCell>
        <mxCell id="KGw5YceljunHFCwn1Aad-327" value="Notify Type Not Available" style="rounded=1;whiteSpace=wrap;html=1;fillColor=#bac8d3;strokeColor=#23445d;" vertex="1" parent="1">
          <mxGeometry x="4300" y="540" width="110" height="50" as="geometry" />
        </mxCell>
        <mxCell id="KGw5YceljunHFCwn1Aad-335" style="edgeStyle=orthogonalEdgeStyle;rounded=0;orthogonalLoop=1;jettySize=auto;html=1;exitX=0.5;exitY=1;exitDx=0;exitDy=0;entryX=0.5;entryY=0;entryDx=0;entryDy=0;" edge="1" parent="1" source="KGw5YceljunHFCwn1Aad-328" target="KGw5YceljunHFCwn1Aad-334">
          <mxGeometry relative="1" as="geometry" />
        </mxCell>
        <mxCell id="KGw5YceljunHFCwn1Aad-328" value="Update Baterry" style="rounded=1;whiteSpace=wrap;html=1;fillColor=#bac8d3;strokeColor=#23445d;" vertex="1" parent="1">
          <mxGeometry x="4150" y="650" width="110" height="50" as="geometry" />
        </mxCell>
        <mxCell id="KGw5YceljunHFCwn1Aad-330" value="No" style="text;html=1;align=center;verticalAlign=middle;whiteSpace=wrap;rounded=0;" vertex="1" parent="1">
          <mxGeometry x="4240" y="540" width="60" height="30" as="geometry" />
        </mxCell>
        <mxCell id="KGw5YceljunHFCwn1Aad-334" value="Confirm battery Type Update" style="rounded=1;whiteSpace=wrap;html=1;fillColor=#bac8d3;strokeColor=#23445d;" vertex="1" parent="1">
          <mxGeometry x="4150" y="750" width="110" height="50" as="geometry" />
        </mxCell>
        <mxCell id="KGw5YceljunHFCwn1Aad-338" value="Generate report" style="shape=umlFrame;whiteSpace=wrap;html=1;pointerEvents=0;width=130;height=30;fillColor=#a0522d;strokeColor=#6D1F00;fontColor=#ffffff;" vertex="1" parent="1">
          <mxGeometry x="4420" y="130" width="360" height="1470" as="geometry" />
        </mxCell>
        <mxCell id="KGw5YceljunHFCwn1Aad-346" style="edgeStyle=orthogonalEdgeStyle;rounded=0;orthogonalLoop=1;jettySize=auto;html=1;exitX=0.5;exitY=1;exitDx=0;exitDy=0;entryX=0.5;entryY=0;entryDx=0;entryDy=0;" edge="1" parent="1" source="KGw5YceljunHFCwn1Aad-339" target="KGw5YceljunHFCwn1Aad-342">
          <mxGeometry relative="1" as="geometry" />
        </mxCell>
        <mxCell id="KGw5YceljunHFCwn1Aad-339" value="Select Report Type" style="rounded=1;whiteSpace=wrap;html=1;fillColor=#a0522d;strokeColor=#6D1F00;fontColor=#ffffff;" vertex="1" parent="1">
          <mxGeometry x="4549" y="250" width="110" height="50" as="geometry" />
        </mxCell>
        <mxCell id="KGw5YceljunHFCwn1Aad-341" value="Display Report" style="rounded=1;whiteSpace=wrap;html=1;fillColor=#a0522d;strokeColor=#6D1F00;fontColor=#ffffff;" vertex="1" parent="1">
          <mxGeometry x="4549" y="760" width="110" height="50" as="geometry" />
        </mxCell>
        <mxCell id="KGw5YceljunHFCwn1Aad-347" style="edgeStyle=orthogonalEdgeStyle;rounded=0;orthogonalLoop=1;jettySize=auto;html=1;exitX=0.5;exitY=1;exitDx=0;exitDy=0;entryX=0.5;entryY=0;entryDx=0;entryDy=0;" edge="1" parent="1" source="KGw5YceljunHFCwn1Aad-342" target="KGw5YceljunHFCwn1Aad-344">
          <mxGeometry relative="1" as="geometry" />
        </mxCell>
        <mxCell id="KGw5YceljunHFCwn1Aad-342" value="Select Data Range (optional)" style="rounded=1;whiteSpace=wrap;html=1;fillColor=#a0522d;strokeColor=#6D1F00;fontColor=#ffffff;" vertex="1" parent="1">
          <mxGeometry x="4549" y="350" width="110" height="50" as="geometry" />
        </mxCell>
        <mxCell id="KGw5YceljunHFCwn1Aad-350" style="edgeStyle=orthogonalEdgeStyle;rounded=0;orthogonalLoop=1;jettySize=auto;html=1;exitX=0.5;exitY=1;exitDx=0;exitDy=0;entryX=0.5;entryY=0;entryDx=0;entryDy=0;" edge="1" parent="1" source="KGw5YceljunHFCwn1Aad-343" target="KGw5YceljunHFCwn1Aad-341">
          <mxGeometry relative="1" as="geometry" />
        </mxCell>
        <mxCell id="KGw5YceljunHFCwn1Aad-343" value="Generate Report" style="rounded=1;whiteSpace=wrap;html=1;fillColor=#a0522d;strokeColor=#6D1F00;fontColor=#ffffff;" vertex="1" parent="1">
          <mxGeometry x="4549" y="650" width="110" height="50" as="geometry" />
        </mxCell>
        <mxCell id="KGw5YceljunHFCwn1Aad-348" style="edgeStyle=orthogonalEdgeStyle;rounded=0;orthogonalLoop=1;jettySize=auto;html=1;exitX=0.5;exitY=1;exitDx=0;exitDy=0;entryX=0.5;entryY=0;entryDx=0;entryDy=0;" edge="1" parent="1" source="KGw5YceljunHFCwn1Aad-344" target="KGw5YceljunHFCwn1Aad-345">
          <mxGeometry relative="1" as="geometry" />
        </mxCell>
        <mxCell id="KGw5YceljunHFCwn1Aad-344" value="Retrieve Data for Report" style="rounded=1;whiteSpace=wrap;html=1;fillColor=#a0522d;strokeColor=#6D1F00;fontColor=#ffffff;" vertex="1" parent="1">
          <mxGeometry x="4549" y="445" width="110" height="50" as="geometry" />
        </mxCell>
        <mxCell id="KGw5YceljunHFCwn1Aad-349" style="edgeStyle=orthogonalEdgeStyle;rounded=0;orthogonalLoop=1;jettySize=auto;html=1;exitX=0.5;exitY=1;exitDx=0;exitDy=0;entryX=0.5;entryY=0;entryDx=0;entryDy=0;" edge="1" parent="1" source="KGw5YceljunHFCwn1Aad-345" target="KGw5YceljunHFCwn1Aad-343">
          <mxGeometry relative="1" as="geometry" />
        </mxCell>
        <mxCell id="KGw5YceljunHFCwn1Aad-345" value="Process Data" style="rounded=1;whiteSpace=wrap;html=1;fillColor=#a0522d;strokeColor=#6D1F00;fontColor=#ffffff;" vertex="1" parent="1">
          <mxGeometry x="4549" y="540" width="110" height="50" as="geometry" />
        </mxCell>
        <mxCell id="KGw5YceljunHFCwn1Aad-354" style="edgeStyle=orthogonalEdgeStyle;rounded=0;orthogonalLoop=1;jettySize=auto;html=1;exitX=0.75;exitY=0.5;exitDx=0;exitDy=0;exitPerimeter=0;entryX=0;entryY=0.5;entryDx=0;entryDy=0;" edge="1" parent="1" source="KGw5YceljunHFCwn1Aad-352" target="KGw5YceljunHFCwn1Aad-339">
          <mxGeometry relative="1" as="geometry">
            <Array as="points">
              <mxPoint x="4268" y="880" />
              <mxPoint x="4434" y="880" />
              <mxPoint x="4434" y="275" />
            </Array>
          </mxGeometry>
        </mxCell>
        <mxCell id="KGw5YceljunHFCwn1Aad-352" value="" style="line;strokeWidth=2;html=1;" vertex="1" parent="1">
          <mxGeometry x="4110" y="865" width="210" height="10" as="geometry" />
        </mxCell>
        <mxCell id="KGw5YceljunHFCwn1Aad-353" style="edgeStyle=orthogonalEdgeStyle;rounded=0;orthogonalLoop=1;jettySize=auto;html=1;exitX=0.5;exitY=1;exitDx=0;exitDy=0;entryX=0.452;entryY=0.763;entryDx=0;entryDy=0;entryPerimeter=0;" edge="1" parent="1" source="KGw5YceljunHFCwn1Aad-334" target="KGw5YceljunHFCwn1Aad-352">
          <mxGeometry relative="1" as="geometry" />
        </mxCell>
        <mxCell id="KGw5YceljunHFCwn1Aad-359" style="edgeStyle=orthogonalEdgeStyle;rounded=0;orthogonalLoop=1;jettySize=auto;html=1;exitX=0.75;exitY=0.5;exitDx=0;exitDy=0;exitPerimeter=0;entryX=1;entryY=0.5;entryDx=0;entryDy=0;verticalAlign=middle;endArrow=none;endFill=0;" edge="1" parent="1" source="KGw5YceljunHFCwn1Aad-356" target="KGw5YceljunHFCwn1Aad-76">
          <mxGeometry relative="1" as="geometry">
            <Array as="points">
              <mxPoint x="4656" y="880" />
              <mxPoint x="4740" y="880" />
              <mxPoint x="4740" y="225" />
            </Array>
          </mxGeometry>
        </mxCell>
        <mxCell id="KGw5YceljunHFCwn1Aad-368" style="edgeStyle=orthogonalEdgeStyle;rounded=0;orthogonalLoop=1;jettySize=auto;html=1;exitX=0.25;exitY=0.5;exitDx=0;exitDy=0;exitPerimeter=0;entryX=1;entryY=0.5;entryDx=0;entryDy=0;" edge="1" parent="1" source="KGw5YceljunHFCwn1Aad-356" target="KGw5YceljunHFCwn1Aad-361">
          <mxGeometry relative="1" as="geometry">
            <Array as="points">
              <mxPoint x="4552" y="1445" />
            </Array>
          </mxGeometry>
        </mxCell>
        <mxCell id="KGw5YceljunHFCwn1Aad-356" value="" style="line;strokeWidth=2;html=1;" vertex="1" parent="1">
          <mxGeometry x="4499" y="855" width="210" height="10" as="geometry" />
        </mxCell>
        <mxCell id="KGw5YceljunHFCwn1Aad-357" style="edgeStyle=orthogonalEdgeStyle;rounded=0;orthogonalLoop=1;jettySize=auto;html=1;exitX=0.5;exitY=1;exitDx=0;exitDy=0;entryX=0.5;entryY=0.711;entryDx=0;entryDy=0;entryPerimeter=0;" edge="1" parent="1" source="KGw5YceljunHFCwn1Aad-341" target="KGw5YceljunHFCwn1Aad-356">
          <mxGeometry relative="1" as="geometry" />
        </mxCell>
        <mxCell id="KGw5YceljunHFCwn1Aad-363" style="edgeStyle=orthogonalEdgeStyle;rounded=0;orthogonalLoop=1;jettySize=auto;html=1;exitX=0.5;exitY=1;exitDx=0;exitDy=0;entryX=0.5;entryY=0;entryDx=0;entryDy=0;" edge="1" parent="1" source="KGw5YceljunHFCwn1Aad-361" target="KGw5YceljunHFCwn1Aad-362">
          <mxGeometry relative="1" as="geometry" />
        </mxCell>
        <mxCell id="KGw5YceljunHFCwn1Aad-361" value="Go to Main Menu" style="rounded=1;whiteSpace=wrap;html=1;fillColor=#dae8fc;strokeColor=#6c8ebf;" vertex="1" parent="1">
          <mxGeometry x="612.5" y="1420" width="115" height="50" as="geometry" />
        </mxCell>
        <mxCell id="KGw5YceljunHFCwn1Aad-362" value="End" style="ellipse;whiteSpace=wrap;html=1;aspect=fixed;fillColor=#dae8fc;strokeColor=#6c8ebf;" vertex="1" parent="1">
          <mxGeometry x="645" y="1520" width="50" height="50" as="geometry" />
        </mxCell>
        <mxCell id="KGw5YceljunHFCwn1Aad-367" value="" style="edgeStyle=elbowEdgeStyle;elbow=vertical;endArrow=classic;html=1;curved=0;rounded=0;endSize=8;startSize=8;" edge="1" parent="1" target="KGw5YceljunHFCwn1Aad-361">
          <mxGeometry width="50" height="50" relative="1" as="geometry">
            <mxPoint x="850" y="230" as="sourcePoint" />
            <mxPoint x="680" y="420" as="targetPoint" />
            <Array as="points">
              <mxPoint x="810" y="290" />
            </Array>
          </mxGeometry>
        </mxCell>
        <mxCell id="KGw5YceljunHFCwn1Aad-369" value="&lt;h1 style=&quot;margin-top: 0px;&quot;&gt;Activity Diagram&lt;/h1&gt;" style="text;html=1;whiteSpace=wrap;overflow=hidden;rounded=0;" vertex="1" parent="1">
          <mxGeometry x="70" y="40" width="250" height="50" as="geometry" />
        </mxCell>
      </root>
    </mxGraphModel>
  </diagram>
</mxfile>
